<mxfile host="65bd71144e">
    <diagram id="eHEfA36xn_3JOlkizhS6" name="Page-1">
        <mxGraphModel dx="2086" dy="716" grid="1" gridSize="10" guides="1" tooltips="1" connect="1" arrows="1" fold="1" page="1" pageScale="1" pageWidth="850" pageHeight="1100" background="#FFFFFF" math="0" shadow="0">
            <root>
                <mxCell id="0"/>
                <mxCell id="1" parent="0"/>
                <mxCell id="58" value="&lt;b&gt;Google &lt;/b&gt;Cloud Platform" style="fillColor=#F6F6F6;strokeColor=none;shadow=0;gradientColor=none;fontSize=14;align=left;spacing=10;fontColor=#717171;9E9E9E;verticalAlign=top;spacingTop=-4;fontStyle=0;spacingLeft=40;html=1;container=0;" vertex="1" parent="1">
                    <mxGeometry x="-143" y="1030" width="800" height="420" as="geometry"/>
                </mxCell>
                <mxCell id="132" style="edgeStyle=none;html=1;entryX=0.5;entryY=1;entryDx=0;entryDy=0;fontColor=#000000;startArrow=none;startFill=0;strokeColor=#000000;strokeWidth=1;" edge="1" parent="1" source="52" target="37">
                    <mxGeometry relative="1" as="geometry"/>
                </mxCell>
                <mxCell id="52" value="Admin" style="verticalLabelPosition=bottom;html=1;verticalAlign=top;align=center;strokeColor=none;fillColor=#00BEF2;shape=mxgraph.azure.user;fontColor=#000000;" vertex="1" parent="1">
                    <mxGeometry x="-21.28000000000003" y="1580" width="47.5" height="50" as="geometry"/>
                </mxCell>
                <mxCell id="37" value="" style="strokeColor=#666666;shadow=1;strokeWidth=1;rounded=1;absoluteArcSize=1;arcSize=2;fillColor=#f5f5f5;fontColor=#333333;" vertex="1" parent="1">
                    <mxGeometry x="-82.53000000000003" y="1480" width="170" height="60" as="geometry"/>
                </mxCell>
                <mxCell id="38" value="&lt;font color=&quot;#000000&quot;&gt;Restricted Master &lt;br&gt;Authorized Network&lt;/font&gt;&lt;br&gt;Cloud Firewall Rules" style="sketch=0;dashed=0;connectable=0;html=1;fillColor=#5184F3;strokeColor=none;shape=mxgraph.gcp2.hexIcon;prIcon=cloud_firewall_rules;part=1;labelPosition=right;verticalLabelPosition=middle;align=left;verticalAlign=middle;spacingLeft=5;fontColor=#999999;fontSize=12;" vertex="1" parent="37">
                    <mxGeometry y="0.5" width="44" height="39" relative="1" as="geometry">
                        <mxPoint x="5" y="-19.5" as="offset"/>
                    </mxGeometry>
                </mxCell>
                <mxCell id="59" value="" style="shape=mxgraph.gcp2.google_cloud_platform;fillColor=#F6F6F6;strokeColor=none;shadow=0;gradientColor=none;" vertex="1" parent="1">
                    <mxGeometry x="-123" y="1040" width="23" height="20" as="geometry">
                        <mxPoint x="20" y="10" as="offset"/>
                    </mxGeometry>
                </mxCell>
                <mxCell id="60" value="&lt;font color=&quot;#000000&quot;&gt;GCP Managed Control Plane&lt;/font&gt;" style="sketch=0;points=[[0,0,0],[0.25,0,0],[0.5,0,0],[0.75,0,0],[1,0,0],[1,0.25,0],[1,0.5,0],[1,0.75,0],[1,1,0],[0.75,1,0],[0.5,1,0],[0.25,1,0],[0,1,0],[0,0.75,0],[0,0.5,0],[0,0.25,0]];rounded=1;absoluteArcSize=1;arcSize=2;html=1;strokeColor=#82b366;shadow=0;dashed=0;fontSize=12;align=left;verticalAlign=top;spacing=10;spacingTop=-4;fillColor=#d5e8d4;" vertex="1" parent="1">
                    <mxGeometry x="-118.08" y="1247.31" width="273.97" height="185" as="geometry"/>
                </mxCell>
                <mxCell id="62" value="" style="strokeColor=#666666;shadow=1;strokeWidth=1;rounded=1;absoluteArcSize=1;arcSize=2;fillColor=#f5f5f5;fontColor=#333333;" vertex="1" parent="60">
                    <mxGeometry x="16.4376" y="102.68692307692308" width="208.21720000000002" height="42.692307692307686" as="geometry"/>
                </mxCell>
                <mxCell id="63" value="&lt;font color=&quot;#000000&quot;&gt;GKE Control Plane&lt;/font&gt;" style="sketch=0;dashed=0;connectable=0;html=1;fillColor=#5184F3;strokeColor=none;shape=mxgraph.gcp2.hexIcon;prIcon=container_engine;part=1;labelPosition=right;verticalLabelPosition=middle;align=left;verticalAlign=middle;spacingLeft=5;fontColor=#999999;fontSize=12;" vertex="1" parent="62">
                    <mxGeometry y="0.5" width="44" height="39" relative="1" as="geometry">
                        <mxPoint x="5" y="-19.5" as="offset"/>
                    </mxGeometry>
                </mxCell>
                <mxCell id="64" value="" style="strokeColor=#666666;shadow=1;strokeWidth=1;rounded=1;absoluteArcSize=1;arcSize=2;fillColor=#f5f5f5;fontColor=#333333;" vertex="1" parent="60">
                    <mxGeometry x="16.4376" y="42.69" width="241.09360000000004" height="42.692307692307686" as="geometry"/>
                </mxCell>
                <mxCell id="65" value="&lt;font color=&quot;#000000&quot;&gt;Public End Point&lt;/font&gt;&lt;br&gt;Cloud External IP Addresses" style="sketch=0;dashed=0;connectable=0;html=1;fillColor=#5184F3;strokeColor=none;shape=mxgraph.gcp2.hexIcon;prIcon=cloud_external_ip_addresses;part=1;labelPosition=right;verticalLabelPosition=middle;align=left;verticalAlign=middle;spacingLeft=5;fontColor=#999999;fontSize=12;" vertex="1" parent="64">
                    <mxGeometry y="0.5" width="44" height="39" relative="1" as="geometry">
                        <mxPoint x="5" y="-19.5" as="offset"/>
                    </mxGeometry>
                </mxCell>
                <mxCell id="66" value="Project" style="sketch=0;points=[[0,0,0],[0.25,0,0],[0.5,0,0],[0.75,0,0],[1,0,0],[1,0.25,0],[1,0.5,0],[1,0.75,0],[1,1,0],[0.75,1,0],[0.5,1,0],[0.25,1,0],[0,1,0],[0,0.75,0],[0,0.5,0],[0,0.25,0]];rounded=1;absoluteArcSize=1;arcSize=2;html=1;strokeColor=none;gradientColor=none;shadow=0;dashed=0;fontSize=12;fontColor=#9E9E9E;align=left;verticalAlign=top;spacing=10;spacingTop=-4;fillColor=#ECEFF1;" vertex="1" parent="1">
                    <mxGeometry x="167" y="1060" width="470" height="290" as="geometry">
                        <mxPoint x="310" y="30" as="offset"/>
                    </mxGeometry>
                </mxCell>
                <mxCell id="67" value="Isolated VPC" style="sketch=0;points=[[0,0,0],[0.25,0,0],[0.5,0,0],[0.75,0,0],[1,0,0],[1,0.25,0],[1,0.5,0],[1,0.75,0],[1,1,0],[0.75,1,0],[0.5,1,0],[0.25,1,0],[0,1,0],[0,0.75,0],[0,0.5,0],[0,0.25,0]];rounded=1;absoluteArcSize=1;arcSize=2;html=1;strokeColor=none;gradientColor=none;shadow=0;dashed=0;fontSize=12;fontColor=#9E9E9E;align=left;verticalAlign=top;spacing=10;spacingTop=-4;fillColor=#FFF3E0;" vertex="1" parent="66">
                    <mxGeometry width="440" height="250" relative="1" as="geometry">
                        <mxPoint x="10" y="32" as="offset"/>
                    </mxGeometry>
                </mxCell>
                <mxCell id="68" value="Firewall (No public ingress)" style="sketch=0;points=[[0,0,0],[0.25,0,0],[0.5,0,0],[0.75,0,0],[1,0,0],[1,0.25,0],[1,0.5,0],[1,0.75,0],[1,1,0],[0.75,1,0],[0.5,1,0],[0.25,1,0],[0,1,0],[0,0.75,0],[0,0.5,0],[0,0.25,0]];rounded=1;absoluteArcSize=1;arcSize=2;html=1;strokeColor=#23445d;shadow=0;dashed=0;fontSize=12;align=left;verticalAlign=top;spacing=10;spacingTop=-4;fillColor=#bac8d3;" vertex="1" parent="67">
                    <mxGeometry width="420" height="190" relative="1" as="geometry">
                        <mxPoint x="10" y="50" as="offset"/>
                    </mxGeometry>
                </mxCell>
                <mxCell id="69" value="Kubernetes Private cluster" style="sketch=0;points=[[0,0,0],[0.25,0,0],[0.5,0,0],[0.75,0,0],[1,0,0],[1,0.25,0],[1,0.5,0],[1,0.75,0],[1,1,0],[0.75,1,0],[0.5,1,0],[0.25,1,0],[0,1,0],[0,0.75,0],[0,0.5,0],[0,0.25,0]];rounded=1;absoluteArcSize=1;arcSize=2;html=1;strokeColor=none;gradientColor=none;shadow=0;dashed=0;fontSize=12;fontColor=#9E9E9E;align=left;verticalAlign=top;spacing=10;spacingTop=-4;fillColor=#FCE4EC;" vertex="1" parent="67">
                    <mxGeometry width="390" height="130" relative="1" as="geometry">
                        <mxPoint x="30" y="90" as="offset"/>
                    </mxGeometry>
                </mxCell>
                <mxCell id="92" value="&lt;span style=&quot;background-color: rgb(153 , 204 , 255)&quot;&gt;Node&lt;/span&gt;" style="sketch=0;points=[[0,0,0],[0.25,0,0],[0.5,0,0],[0.75,0,0],[1,0,0],[1,0.25,0],[1,0.5,0],[1,0.75,0],[1,1,0],[0.75,1,0],[0.5,1,0],[0.25,1,0],[0,1,0],[0,0.75,0],[0,0.5,0],[0,0.25,0]];rounded=1;absoluteArcSize=1;arcSize=2;html=1;strokeColor=#6c8ebf;shadow=0;dashed=0;fontSize=12;align=left;verticalAlign=top;spacing=10;spacingTop=-4;fillColor=#dae8fc;" vertex="1" parent="69">
                    <mxGeometry x="235" y="30" width="120" height="90" as="geometry"/>
                </mxCell>
                <mxCell id="74" value="&lt;span style=&quot;background-color: rgb(153 , 204 , 255)&quot;&gt;Node&lt;/span&gt;" style="sketch=0;points=[[0,0,0],[0.25,0,0],[0.5,0,0],[0.75,0,0],[1,0,0],[1,0.25,0],[1,0.5,0],[1,0.75,0],[1,1,0],[0.75,1,0],[0.5,1,0],[0.25,1,0],[0,1,0],[0,0.75,0],[0,0.5,0],[0,0.25,0]];rounded=1;absoluteArcSize=1;arcSize=2;html=1;strokeColor=#6c8ebf;shadow=0;dashed=0;fontSize=12;align=left;verticalAlign=top;spacing=10;spacingTop=-4;fillColor=#dae8fc;" vertex="1" parent="69">
                    <mxGeometry x="10" y="30" width="220" height="90" as="geometry"/>
                </mxCell>
                <mxCell id="70" value="pod" style="sketch=0;points=[[0,0,0],[0.25,0,0],[0.5,0,0],[0.75,0,0],[1,0,0],[1,0.25,0],[1,0.5,0],[1,0.75,0],[1,1,0],[0.75,1,0],[0.5,1,0],[0.25,1,0],[0,1,0],[0,0.75,0],[0,0.5,0],[0,0.25,0]];rounded=1;absoluteArcSize=1;arcSize=2;html=1;strokeColor=none;gradientColor=none;shadow=0;dashed=0;fontSize=12;fontColor=#9E9E9E;align=left;verticalAlign=top;spacing=10;spacingTop=-4;fillColor=#E8F5E9;" vertex="1" parent="69">
                    <mxGeometry width="60" height="50" relative="1" as="geometry">
                        <mxPoint x="20" y="60" as="offset"/>
                    </mxGeometry>
                </mxCell>
                <mxCell id="71" value="pod" style="sketch=0;points=[[0,0,0],[0.25,0,0],[0.5,0,0],[0.75,0,0],[1,0,0],[1,0.25,0],[1,0.5,0],[1,0.75,0],[1,1,0],[0.75,1,0],[0.5,1,0],[0.25,1,0],[0,1,0],[0,0.75,0],[0,0.5,0],[0,0.25,0]];rounded=1;absoluteArcSize=1;arcSize=2;html=1;strokeColor=none;gradientColor=none;shadow=0;dashed=0;fontSize=12;fontColor=#9E9E9E;align=left;verticalAlign=top;spacing=10;spacingTop=-4;fillColor=#E8F5E9;" vertex="1" parent="69">
                    <mxGeometry x="90" y="60" width="60" height="50" as="geometry"/>
                </mxCell>
                <mxCell id="72" value="pod" style="sketch=0;points=[[0,0,0],[0.25,0,0],[0.5,0,0],[0.75,0,0],[1,0,0],[1,0.25,0],[1,0.5,0],[1,0.75,0],[1,1,0],[0.75,1,0],[0.5,1,0],[0.25,1,0],[0,1,0],[0,0.75,0],[0,0.5,0],[0,0.25,0]];rounded=1;absoluteArcSize=1;arcSize=2;html=1;strokeColor=none;gradientColor=none;shadow=0;dashed=0;fontSize=12;fontColor=#9E9E9E;align=left;verticalAlign=top;spacing=10;spacingTop=-4;fillColor=#E8F5E9;" vertex="1" parent="69">
                    <mxGeometry x="160" y="60" width="60" height="50" as="geometry"/>
                </mxCell>
                <mxCell id="73" value="pod" style="sketch=0;points=[[0,0,0],[0.25,0,0],[0.5,0,0],[0.75,0,0],[1,0,0],[1,0.25,0],[1,0.5,0],[1,0.75,0],[1,1,0],[0.75,1,0],[0.5,1,0],[0.25,1,0],[0,1,0],[0,0.75,0],[0,0.5,0],[0,0.25,0]];rounded=1;absoluteArcSize=1;arcSize=2;html=1;strokeColor=none;gradientColor=none;shadow=0;dashed=0;fontSize=12;fontColor=#9E9E9E;align=left;verticalAlign=top;spacing=10;spacingTop=-4;fillColor=#E8F5E9;" vertex="1" parent="69">
                    <mxGeometry x="250" y="60" width="60" height="50" as="geometry"/>
                </mxCell>
                <mxCell id="39" value="" style="strokeColor=#666666;shadow=1;strokeWidth=1;rounded=1;absoluteArcSize=1;arcSize=2;fillColor=#f5f5f5;fontColor=#333333;" vertex="1" parent="67">
                    <mxGeometry x="240" y="8" width="180" height="32" as="geometry"/>
                </mxCell>
                <mxCell id="40" value="Cloud Router &amp;amp; NAT&lt;br&gt;For egress traffic" style="sketch=0;dashed=0;connectable=0;html=1;fillColor=#5184F3;strokeColor=none;shape=mxgraph.gcp2.hexIcon;prIcon=cloud_router;part=1;labelPosition=right;verticalLabelPosition=middle;align=left;verticalAlign=middle;spacingLeft=5;fontColor=#999999;fontSize=12;" vertex="1" parent="39">
                    <mxGeometry y="0.5" width="44" height="39" relative="1" as="geometry">
                        <mxPoint x="5" y="-19.5" as="offset"/>
                    </mxGeometry>
                </mxCell>
                <mxCell id="93" style="edgeStyle=none;html=1;entryX=-0.003;entryY=0.3;entryDx=0;entryDy=0;entryPerimeter=0;fontColor=#000000;strokeColor=#000000;exitX=1;exitY=0.5;exitDx=0;exitDy=0;startArrow=classic;startFill=1;" edge="1" parent="1" source="62" target="69">
                    <mxGeometry relative="1" as="geometry">
                        <Array as="points">
                            <mxPoint x="170" y="1371"/>
                            <mxPoint x="170" y="1221"/>
                        </Array>
                    </mxGeometry>
                </mxCell>
                <mxCell id="94" value="" style="strokeColor=#666666;shadow=1;strokeWidth=1;rounded=1;absoluteArcSize=1;arcSize=2;labelBackgroundColor=#99CCFF;fontColor=#333333;fillColor=#FFFFFF;" vertex="1" parent="1">
                    <mxGeometry x="-97.60000000000002" y="1150.23" width="233" height="60" as="geometry"/>
                </mxCell>
                <mxCell id="95" value="&lt;font color=&quot;#000000&quot;&gt;Monitoring&lt;/font&gt;" style="sketch=0;dashed=0;connectable=0;html=1;fillColor=#5184F3;strokeColor=none;shape=mxgraph.gcp2.hexIcon;prIcon=cloud_deployment_manager;part=1;labelPosition=right;verticalLabelPosition=middle;align=left;verticalAlign=middle;spacingLeft=5;fontColor=#999999;fontSize=12;labelBackgroundColor=#99CCFF;" vertex="1" parent="94">
                    <mxGeometry y="0.5" width="44" height="39" relative="1" as="geometry">
                        <mxPoint x="5" y="-19.5" as="offset"/>
                    </mxGeometry>
                </mxCell>
                <mxCell id="96" value="" style="strokeColor=#666666;shadow=1;strokeWidth=1;rounded=1;absoluteArcSize=1;arcSize=2;labelBackgroundColor=#99CCFF;fontColor=#333333;fillColor=#f5f5f5;" vertex="1" parent="1">
                    <mxGeometry x="-97.60000000000002" y="1080.23" width="230" height="60" as="geometry"/>
                </mxCell>
                <mxCell id="97" value="&lt;font color=&quot;#000000&quot;&gt;Artifact and Container Registry&lt;/font&gt;" style="sketch=0;dashed=0;connectable=0;html=1;fillColor=#5184F3;strokeColor=none;shape=mxgraph.gcp2.hexIcon;prIcon=container_registry;part=1;labelPosition=right;verticalLabelPosition=middle;align=left;verticalAlign=middle;spacingLeft=5;fontColor=#999999;fontSize=12;labelBackgroundColor=#99CCFF;" vertex="1" parent="96">
                    <mxGeometry y="0.5" width="44" height="39" relative="1" as="geometry">
                        <mxPoint x="5" y="-19.5" as="offset"/>
                    </mxGeometry>
                </mxCell>
                <mxCell id="100" style="edgeStyle=none;html=1;entryX=0.25;entryY=0;entryDx=0;entryDy=0;fontColor=#000000;startArrow=none;startFill=0;strokeColor=#000000;strokeWidth=5;exitX=0.5;exitY=1;exitDx=0;exitDy=0;" edge="1" parent="1" source="130" target="58">
                    <mxGeometry relative="1" as="geometry">
                        <mxPoint x="-213" y="1150.3196473551639" as="sourcePoint"/>
                        <mxPoint x="-143" y="1149.5" as="targetPoint"/>
                        <Array as="points"/>
                    </mxGeometry>
                </mxCell>
                <mxCell id="116" style="edgeStyle=none;html=1;entryX=0.5;entryY=1;entryDx=0;entryDy=0;entryPerimeter=0;fontColor=#000000;startArrow=none;startFill=0;strokeColor=#000000;strokeWidth=1;" edge="1" parent="1" source="114" target="70">
                    <mxGeometry relative="1" as="geometry">
                        <Array as="points">
                            <mxPoint x="270" y="1400"/>
                        </Array>
                    </mxGeometry>
                </mxCell>
                <mxCell id="117" style="edgeStyle=none;html=1;entryX=0.5;entryY=1;entryDx=0;entryDy=0;entryPerimeter=0;fontColor=#000000;startArrow=none;startFill=0;strokeColor=#000000;strokeWidth=1;" edge="1" parent="1" source="114" target="71">
                    <mxGeometry relative="1" as="geometry">
                        <Array as="points">
                            <mxPoint x="327" y="1390"/>
                        </Array>
                    </mxGeometry>
                </mxCell>
                <mxCell id="118" style="edgeStyle=none;html=1;entryX=0.5;entryY=1;entryDx=0;entryDy=0;entryPerimeter=0;fontColor=#000000;startArrow=none;startFill=0;strokeColor=#000000;strokeWidth=1;" edge="1" parent="1" source="114" target="72">
                    <mxGeometry relative="1" as="geometry">
                        <Array as="points">
                            <mxPoint x="400" y="1390"/>
                        </Array>
                    </mxGeometry>
                </mxCell>
                <mxCell id="119" style="edgeStyle=none;html=1;entryX=0.5;entryY=1;entryDx=0;entryDy=0;entryPerimeter=0;fontColor=#000000;startArrow=none;startFill=0;strokeColor=#000000;strokeWidth=1;" edge="1" parent="1" source="114" target="73">
                    <mxGeometry relative="1" as="geometry">
                        <Array as="points">
                            <mxPoint x="487" y="1390"/>
                        </Array>
                    </mxGeometry>
                </mxCell>
                <mxCell id="114" value="" style="strokeColor=#dddddd;shadow=1;strokeWidth=1;rounded=1;absoluteArcSize=1;arcSize=2;labelBackgroundColor=none;fontColor=#000000;fillColor=#FFFFFF;" vertex="1" parent="1">
                    <mxGeometry x="277.00000000000006" y="1480" width="180" height="60" as="geometry"/>
                </mxCell>
                <mxCell id="115" value="&lt;font color=&quot;#000000&quot;&gt;External Load Balancer&lt;/font&gt;&lt;br&gt;Cloud Load Balancing" style="sketch=0;dashed=0;connectable=0;html=1;fillColor=#5184F3;strokeColor=none;shape=mxgraph.gcp2.hexIcon;prIcon=cloud_load_balancing;part=1;labelPosition=right;verticalLabelPosition=middle;align=left;verticalAlign=middle;spacingLeft=5;fontColor=#999999;fontSize=12;labelBackgroundColor=none;" vertex="1" parent="114">
                    <mxGeometry y="0.5" width="44" height="39" relative="1" as="geometry">
                        <mxPoint x="5" y="-19.5" as="offset"/>
                    </mxGeometry>
                </mxCell>
                <mxCell id="128" style="edgeStyle=none;html=1;entryX=0.5;entryY=1;entryDx=0;entryDy=0;fontColor=#000000;startArrow=none;startFill=0;strokeColor=#000000;strokeWidth=1;" edge="1" parent="1" source="125" target="114">
                    <mxGeometry relative="1" as="geometry"/>
                </mxCell>
                <mxCell id="129" value="API&lt;br&gt;&amp;nbsp;REQUESTS" style="edgeLabel;html=1;align=center;verticalAlign=middle;resizable=0;points=[];fontColor=#000000;labelBackgroundColor=none;" vertex="1" connectable="0" parent="128">
                    <mxGeometry x="-0.1984" y="1" relative="1" as="geometry">
                        <mxPoint x="39" y="-1" as="offset"/>
                    </mxGeometry>
                </mxCell>
                <mxCell id="125" value="Users" style="verticalLabelPosition=bottom;html=1;verticalAlign=top;align=center;strokeColor=none;fillColor=#00BEF2;shape=mxgraph.azure.user;fontColor=#000000;" vertex="1" parent="1">
                    <mxGeometry x="343.25" y="1608.62" width="47.5" height="50" as="geometry"/>
                </mxCell>
                <mxCell id="126" value="Users" style="verticalLabelPosition=bottom;html=1;verticalAlign=top;align=center;strokeColor=none;fillColor=#00BEF2;shape=mxgraph.azure.user;fontColor=#000000;" vertex="1" parent="1">
                    <mxGeometry x="295.75" y="1608.62" width="47.5" height="50" as="geometry"/>
                </mxCell>
                <mxCell id="127" value="Users" style="verticalLabelPosition=bottom;html=1;verticalAlign=top;align=center;strokeColor=none;fillColor=#00BEF2;shape=mxgraph.azure.user;fontColor=#000000;" vertex="1" parent="1">
                    <mxGeometry x="390.75" y="1608.62" width="47.5" height="50" as="geometry"/>
                </mxCell>
                <mxCell id="130" value="" style="shape=image;verticalLabelPosition=bottom;labelBackgroundColor=#ffffff;verticalAlign=top;aspect=fixed;imageAspect=0;image=data:image/png,iVBORw0KGgoAAAANSUhEUgAAAggAAAE4CAYAAAA+bgtTAAAAAXNSR0IArs4c6QAAIABJREFUeF7sfQd8HFe5/Znd1apbkrtsy73GNXZ6t0N6D5CQQEghQALhz4MA4VFCfZTQ4ZHAAxISSAMS0iC94vRmx467LclFLpIlWX3bzP93vjt3tVrLtmzL65X1LSiStTsz9547mu/c8zXHTXgeHIBfHhLyI1+O5/9g37T/TP7afjL9Df23IqAIKAKKgCKgCPR1BBzP9QwVEHvv7mI+PoPo67PV8SsCioAioAgoAopAjxBwPM/zQIqgBKFHgOmHFAFFQBFQBBSB/oCAIQjJlyoI/WHRdY6KgCKgCCgCisCeEEghCOQJKVyhy5HqYtgTkPq+IqAIKAKKgCJwKCGQpiDsjiAcStPe+7lQaHFdF/weCAQQi8Xk53A4LP/mi//m7/m5YDAov+f3Xb34Wb5ycnKSH+E5EomEnIu/b2lpkWvY86SeT7xDnodIJCLX5edzc3OT4+Hv+cVj8vPz5TM8F1+O032QqZ0nx87PcC67+vyuzmEn00Wc2s0193419AhFQBFQBBSBA42AEoS9QJjGkka2oaEBa9euFeM7evRojBs3ToxpR0cHVqxYgdraWgwaNAjjx49HaWlp0mCnX4pEgMdZgmFJBq/Dr/b2drz22mvy/oQJE1BRUYFQKCTv8YvH79ixA+vWrUNTU5OMZezYsXLOzZs3o6amRsbCz5WUlKCwsFDeLysrEyKxqxcN+56M/+6O3dV7+3rOvVgi/agioAgoAopALyGgBGEvgKThbGtrw7Jly/D000+LUT722GMxf/585OXlibH+5z//icWLF2PKlCk466yzxCCnKgQ9vRyN+saNG/Hb3/5WiMeZZ56ZvE4qQVizZg2ef/55bN26FccccwyOO+44VFdX48UXXxQS09jYiHg8LuMbOnQoLrroIkydOlUIQ08MtlUB9uazShB6usr6OUVAEVAEshcBx/Nc369gJed0N4PWO7DLR8NMEvDKK6/gnnvuEeN7zjnn4IMf/KAYXO7Wb731VjHO8+bNw5VXXinGON0tYF0P9vc04CQEfPE9fvHflZWV+PKXvyyKxcc+9jG5DlUAqzrw+/Lly/HMM89gy5YtQhCOOOII3HfffXjiiSdE4aBaQHLAawwYMACf+MQnMGvWLDlP+suOy17fjomfSyUI6W4Hvpf+lX5Md//O3j8LHZkioAgoAoqATxBICgJ0osOlWzzuwAkCTshPfzQudnnZUMaUX/ULFLmTppGlsV64cCHuvPNOURAuuOACXHLJJRg4cKDI+r/+9a9lR3/kkUcKQaBboL6+HtFoVNwCNL5FRUUYPHgwiouL5ZwkFjwvf6YLgcabnyEB+eIXvyjqwIUXXojTTz9d3qciwWPpxiBhoaLBa9DVwd9/5StfEbfDySefjFNPPVWUAyoffJEckCjw3Pyiy4TGnWSFZILn5DWam5vl3PzZEhJel+fhlyURnBN/T1cKSVJBQcFObhN7g/REhegXN5NOUhFQBBSBPoBAF4IQi0XRuLEDkXoHJaUFKBwYAHIcBLjZlEqLQBweYok48oI5pBSdrKEfCA00hiQFL730Ev70pz9h+/bt4kY4//zzxTBzF//Xv/5VCAQJAokDDe1TTz0l8QA0rAwSnD59uhhuGmsa/wcffBDvvfeenJsGdtq0aeJSoNH97//+b1ESJk6ciGHDhqGurk4wP+yww+T83OX/5z//kWvzmqNGjcKnPvUpIRuf//znRXXgeagm8LOMPeA1OSbOg6SGJIDk4Oijj8Zpp50mBIIqCZUQHksFgsSB52aMBckHz8MAShIb/nzSSSfJnBgrQcKQGlfRB/4OdIiKgCKgCCgCaQgIQfDgwkEQsWgMy1/dhKUvVyEnHMSUmeMxasJQFA3OQU4R4AaBmOMihAAYm98POEEXuNIJwurVq8UgMt6Ahp1kYNGiRWJ0aTA/9KEPiVGmoeVunCoCYwYYfHjiiSdKPAB3/3//+98lzmDEiBEYMmQIRo4cKe4CGuZvfetbePvtt+X8VAJoeKkW0KB/4QtfkOwExkNUVVWJgaaRv/766+W6fJ8EgcZd1B/PkzHee++9eOSRR4Rs8Dx8UcUgybn00ksxefJkIQ90o/A8HBfHS5JCMvLqq6+KWsCgSBIRzpfkgfM944wz5JyqFuizRhFQBBSBvo1AVwUhEsOi5zfg5UdXoKFxBwYMKsS4KRWYcNgIDB9dgoKyEEL5CeTk5iDINLi+Pfe9Hn0qQfjjH/+YNNzcZdvsAhpaEgDuxD/5yU9i+PDhYrwp5be2tuLZZ5/FO++8g0mTJuEjH/mIEAoaaxpxGmGqB3Q/jBkzRgw4YxCoIDAY8oQTTpBzP/roo2LQb7jhBiERzz33HDZt2iTXPOqoo0Q52BVBoOpxyy23CGmxgZQkHYxjeOONNyQQkvET7777Lh544AFxndDoc2w8J9UOvjd37lz5PZWJ+++/X0gL53P55ZcLyVGCsNe3lx6gCCgCikBWIeBnMTDXPYBoRwyLnt2CFx5cjo0btsILeCgdVITycaUYNWEgxkwsw4ixA1AysAjh/BwjIfiuB9mhdjO1ZPOnrJr2vg0mXUGg3E4FYebMmeI6oAuBRpbuBBraK664QuT6999/X9wRlORJDlauXCkE4aqrrhLDzswHkgfGK/B8JAl0F1B1oIuBx374wx+WeAf+zDgHXvu6666TWIUXXnhBMh4+8IEPCEG48cYbuxAEEhirIGzbtk1UCY6TisM111wjLgGSgX/84x+YPXu2nGPVqlV4/PHHhURce+214tJYv3497rrrLnlvwYIFojZwzr/4xS9kPPw350SCowRh3+4xPUoRUAQUgWxBoCtBaI9i0XOb8RIJQlUdYgkH9CXkFgKlQwpQMa4UYycPRsX4IRg5dghyC4MIsO6OAyRID9gCUhgB2zvQbUFnhHPIKA0kCJToufumgkBjy8DB8847Tww14wDuvvtuURaYTcD4BO6sGZPAnT+N5oYNGyQGgHEIn/nMZ0QBoL+f7goSC7ohGGzI7AiqCt/5znckmPDjH/+4SPgkFFQAGLNABYFSP8fD855yyiniYiCpoMvic5/7nLgYKPnbjASqEjfffLMQBI6P8QoMUCRJYfYDiQDVCrpCnnzySSEL//Vf/yVujyVLlkhwJsdKMkK1gKTnpz/9KZYuXSr/ZpaEuhiy5c9bx6EIKAKKwL4j4BME060p0h7Be8/WYOFDy7F5fRPisRzE3QA8JwEn5CK3MI6ywTmomFiGGUeMxYgxg1A2ZABCeUG4ARfI8YCAK22jE14CIScXQYQ6CUKyKdS+D/hgHkkfPg0iJf077rhDdviMI+DOmbt07rB///vfy46eBIA1Cage0GdPA0t3AwP86HKgIbaG1xY1orpAckFjTuNNqf9HP/qRkAwSBKoIvMYPfvADMcg8ngqFVRCoWtC4k1SQhFx88cU4++yzZUdPVwAJCgnJr371K7z88ssS5/DRj35UCMJjjz0migF/R5LB85Mg8HzMimD8A90ht99+u8RN2BgKBlZyznSDUD24+uqrlSAczJtUr60IKAKKQC8h0IUgdLR1YMlzNXjloZVCEGLRMBJxEgRfGXDa4IQ6EC6KY2hFMabNHo/J0ydg6MhSFJWFECggz/AQR1yIQgDMdGD6pD9ah/n0vTTyg3AaSxBokJmtwJ09DXBqmuNtt90maY4kCNbQvvnmm1IPgS4ESvE0sHQxfPaznxXjTNJA5YDGnySB7gYSD6oQv/zlL0WZuOyyy0QNoMrwwx/+MOliIEFgXAOPJakgSeAYeB4qEHRXMCbAplAy9ZGBhhwjsw94DaZVUsWw6ZQkL1QYSBBIUr72ta9JLAILQDF7g+dmICPdERwrFRLGMZDEEAsb+HgQlkgvqQgoAoqAItBLCHQlCK2GILz68Cpsrm5CPBpCIh5keQSJUXACUThOFAjFECoA8geEMGRkGabNmoiJMyowcHgY+QMCCJIoMAfSk9IKna9eIAhpp+slGHp2GhIEW/74b3/7mxAEBgaee+65oiAwcJCR/yQQ9N3TGFP6586cKgAzEagO8Ivvs7YBDTszBqx7gW4MBiiSEPA7d/s8luSABICxBn/4wx/k83Q50MjbNEe6O/hFQ85gQhIRBkdSNWCMBLMRGBfBeTAokcGGJCa2OBPjH+gmKC8vF5WEqZAMRvz0pz8trgxLEDg/XpeqAufC4+mKoGJBwsHraQxCz+4p/ZQioAgoAtmKwE4EYelzm/Hqw6uxuXoHYpGgKAjwGEkQRMCJw3HicB0XMaoEwQRyCjyUDM7HiLFlmHDYKEyZNRbDxuYiwCJLzIXsKiAY4mBfPXI5dFICz3dWpJIEn4fIGbsTJ/hZ1ooMkJz0wirQgHOnTSWAsj3jBdhzgUoA/f50HzBOgAaVqX90SfCzPIY7dVsJkYSCKgLrCNCnz/e5y+dxJAY01syMoNRPI89rUIHgjp1uC56X1+ZnSBb4e/6bqYd8j0SC5IQxBzTivB4NOs9Dg04yQ3LCOAq+T4WAx/K6NPCcA9+nCkH1g8cw7oHkhIqIdaGQKDA9kooCr8/rKDnohRtNT6EIKAKKwEFGoBuCsMVXEEgQAqIgWILggFX3WCrJQRyOuB4CwTiCOQmECz2UDSvC9HljcOIZM1A4KIRADuDxcJmki4QbQygUgBOkWfeZQtJqp6RDWFDo2iARkaBHMo5A0lshFR09IJhm+D3PFUbgIICE68ELBZDwCQL5CskCL78/ZMGmLJIssA6B3THz3yQN3JWTMHDXzt/RYNuduq1MyO9UFEgKqErwONsdkuek4eW/STrs7/k7GnN+3vZXoDHmePh7qxTYplI8NvW8HI/t5mjPY8/PTAaOh+fg2Dlevsfzk9TwGlQc6GIgQWFAJNMabRMoBmny2GwukJTeXVJIZV/2eR3kh4deXhFQBA5tBHYmCM9vwWsPrUJN9Q5EO0gQjHpgvgxBcBGEizDgOQg4CQScGLxgFHlFQUyYORTnfOQYOAURxLwE8oryUVgcRo5kO8ThBFw4tOoBX15IWuoUqaELQYgKPQBy4Ikk0RnSkBLaYDMukYjFEe+II9LWgYamVuQUF6OgpBgFeQ5CJBMMp+gFNWFPTYxSjVH6z9aIHizjtKuxWYNpx2VbP/PfJCXMYvjLX/4iaY7MYqC7gvENlvRky59Kd0RgV2M7WGuQLVjpOBQBRUAR2OXz0ZOnqdH6O1o78P7zVBBWo6aqsZMgeEE4TleC4InBZkXFOPfqQCiOcGEAoyaX4NxLj0Nt80Zs29qEoqKBGDVmMAaXFyKvwIGTkwBySBKCcALcyju+KtCdgsCRsUaDdSDYz3ZVAEggqEe4HQ5a69tRu6kRmzdsR11TPSqmjsLoyaNQVhJGyPALffUQAUsQqChQiaDbwsY7sEw0CzfRvZBKKJLcLot25rsjDEoQengz6McUAUWg3yGwk4JAgvDaIyQIOxBpd4yCkEYQaI5dJ0dIBclBwEvAC8aQUxDEmKllOP3io7Buw0osfWs9vGghRk8YhAnThmLQyEKUDc9HuCgAJycIh+4GqciYIvinBBjIj93whlSBgbEFrptAtD2Kps0d2LiqDquXbkL12jpE0YHjz56DGUeNw+DBhab5lOUa/W6p937CqQSBR9PlwDoQdE/Q7UBywJ9tJ8fUKxxsw8ux70q5yaZx7v2q6BGKgCKgCGQGgW4IwlZDECobEOkgQQh2QxAcuBKFCAQ8pjMmEEcM4YIQJs8ajvnnzcOayuV484XVaNzs+vEJeRg3rRxT54zFsDGlKCjJRSg/gEDIEW+DaBhpHae9XQQKSGhCAvDi4uVAU20UGyu3YPXiaqxfsQXbt7ShtclDbglw8kUzcfiJ4zF0WBkcCXvwIL6GPvKyHSCzYbjduVXSWz9nSkHgWNJJiCU0HBNdIgzcJIGxGNoYDbpE7Fc2x0xkw5rrGBQBRaD/IrAHghCA54YkSNEEKvpBity1sx+0hA26QhLcQAI5+SGMmzYEp110NNZVrsKil6pQVxVFNBGFG4wjt8RB+fgyjJ48FFNmjkL52DIUluQimBtA3HWRm9uZ4tBtOqOkJAAegw+jQFtTAts3t2P54mqsen8jtlbXIbIjDjfK7IsgiocD8z98GGaeMBJDhgyGI0EI+95lyhpDGhUaIxqfdKOZarT2ZhedavDsOXkdXpMSv746EWCApm1RnYoLAytZipqZG8zCYEYJfyZZYOAngzCZlcE0TmZsjB07VgIr9aUIKAKKgCKwMwK7JAibfAXB8cJkA/DSCQK1ffr+mSHgufACLkL5ORg7dQhOv+gYrKtcg8UvVWN7ZRSRGBUGVlqMA3kRFA0KonxsESYeNhwTpo9H+dghCOcbJSFIYUI2+Db2oGvwohcBIq1xNG5rw7oVNVi+eD1q1jWjtdFDrDUOL0qfRBCu66BouIcFl07G9BPKMXRoCkHYjzuBBttmJlBy724HvTfEoLuh8Hib5WB3uvt7zv2YclYdmuo6SN39kxwwrZOdLV977TUhB6x0SXJAIkccSbT4nSSBFSLZy4K1IVRFyKol1sEoAopAliCwe4LQzugAZisEADcAx4lJgiPLKrt+zwVDEDxp7GQIwjCcLgrC2k4FIcrSy5ByzQmnA8HcBHILXQwcWoBh44egYmoFJkyrwMDBuSgsgqRHdslDZBhlHIi2Ads2tqJ6TQ2qV23GpnV1qN/cjERHAG6Eaocj7hDPCyLhBlFYDsy/ZBqmnzACQ4YNQCi0f+mNNE5M92N9AJZPZnlh2+Ngf9eTBIBkw6Y0si7B8ccfL3UL6O9XFaF7hIkXFQUSgocffliKOy1fvlyKWJE0dKfoMDWTFSdZsppKgmK7v3evHq8IKAKHIgIpBAFob+3Ashe24tVHVmFTZSOiJAhUEKSYQaqLgYaeFp/uBRIEERmQkx/GmKnDcMZFR2FdZSXefakKtdURxCLcdQNBKVqQkFRHOFE4oQSCpQEMGD0AY6eUY+Lk4agYMxADB+Ujl9UYrbKeALZtaseGdbVYt3wLNqypQ92mJjTXdiDk5iCQMGPwmBERYApmEIkECUIQp1wyXQjC4OH5CAVNtoPxMuxbHAK7F77++utSMZF9E6gipL7Sg+N6etPQSFmXBeVwGi6WLj7ppJOkiBF3vvraGQHbYfOJJ56QBlpMxWR/CBt7YNeDRIFKAb8TT1ac/J//+R/pkaEKgt5ZioAioAh062Jg6SDj8Y9G4lj7Ti3eeGYV1i3fhpYGD4mOHDjxEEJeGI4XA9yIFEgyBZCMi4FcIREEcvJyMXrqUJPFUFWFxS9WYnslCwclJG4gKAWSDLHwvDgSXgyxnCicQgdFpWGMGTsU4yeWY+zkoRgxthSFxSFEIy4atrbg/XdqsG7FFmyqrkPrjhjcDioKCeSF8uDGmWoZMFUbA0yFZJGkAAqHO5h/ycwkQQj6BIFz3VeCwCh+9jFgRUE2PGIgXDpB2FPanw2m43E2zoAEwBo1Kgassnj99ddLV0dWQNRd7s43r1UPqqurpSQ1FQRWpEyN5yCuLA5l3Qt8j82rzjjjDHz1q1+VOg7qvtFHoyKgCCgCuyAIyVoDXgCNW6NYvXQzVizahM1VrWjcHENHYwLBWBiBRBRevB1OgC4FNnHyd+NCEBwE8w1B+MDFR2BdVTWWvFCJhkoqCHF5aEtwX2qDBsdDIsDWTjE4wQTywgGUDsrD6OnDMOuYSRhdMQS1W7Zh0Wsrsea9BrTVhxDtiIkawQRLN+H5HaZNBSTPcUVK8DwHCc9DkRCEWZh+wkgMHkYFwQBgxtAJxt4YCO5O2aeAHQxZEyCdIFijz3PuqpiSdSWkEoTUz7OqIZsssV0z+zyQIOgut+vNa0kW6zNQyfnGN74hvSJI4CxBYAAiAxFZPpqVHm3VSboY2LWS3TFT6zjoA0IRUAQUAUUgxTZ6XsLUSpKXAy8eQKTVQ92mKKpW1qNy+TZsXLkNjZvbkYhEEGIlY7HQnUI9f2LLhlBBGKOnDsNpFx+BtZXVWPJiJerTCUKX7k10C7hIiH8gIemSTjCK4pE5OPzEaZgyZTw2Vlfh5WfeRuvWXLhtbHZk/PSBACVjFm8y5XJNx0lLEFhS2UXh8ADmf9gQhCHD82GTAdIL5/SUIPA4EoQXX3xR5GwSBJZRTn3Zc9nvqWTAfi6VOHBna7Mi7Gf5OyoIX/jCF0RB4C7XfqanYz3Ub3IbHEqXD+NBvvSlL0nPCxt3QOWAvTDOP/98XHDBBdJqmxjaDAh2wRw2bBhIxvSlCCgCioAi0I2C4Lrx1IxCOCwWwJiCdgct9UB9TQwbVtZj7dLNqKneitaGCOLRBNxYAo70PDByPY08YxBGTxuK0y86Emt9FwPTHLsoCDsRBCDh8Ax0VyTgOhHkDEzgiFNmYNbMaVi7ehVeeOJVeC1FQIfthugKKbB9BSSfYi8Iwr7eCHQBUDHgjpXdHBmLkE4Q7M7WfpbNmGjMUosJMd2OTY1s7wLrG7eBihwfYxCuvfZaLFiwQPodWIOoBs1XgfxCSCRs7IZJgsCgURIAvhjHwXbUN954o5SF5r/TAxZtF0slXfv6F6HHKQKKwKGMgLMzQWB6IXf0YYAhB21Aez1Qt8HDupW1WLNsA2qqtqKjuQMuYwsSNOwOvKCHUF4YY6Yxi+FIrPWDFOuq90QQAoYgMNgRLjwnhlBZHEfNn41ZsyZh1fI1+M/TryO2IwdONE/UA3IMkwdv6iYIvdgrgtCjNpI7rbttxsQIeZtjbw2S/bBt57xlyxZRGBhVb90Q1hCxJTJ3tiQBtjmSzevnNXgO7nDZIZHqAZs0dVet8FC+MXc3N6vA8DsJGNtP08XANaGCQAyJGVtQf//738dxxx1n7hO5Z/x+Hj5RVXLQX+8inbcioAjsCQGHLoak9O375kVFoDZArsCvKOC1AY11QM36dlSv2ILKZRtQV9OI9uY2SWFwGRUQYqGkETjjoiOxZm0VFi2sRF11B2LROFw/SDFNQJDMg4TDDAkT8EiCEB7o4YhTZmPmjPFYu6oaLz31KqI7ggjEuha1kTwEUR96qiBYYrBvBIGXs3UQmO6YTg74vg2cYwvnv//979LciMV6rIGi6sEIegYgsp+B7QRJw2XjECwZoNJgCzLxWlZFsJUBKaNbRcH63XcXq0DikZotkRrZn1qx0ZZPtudKT+W0ioedb7qRtYqJ/W7PY10oNlvDntfOm3Pg+CwhSt6X3Rhz4s/z1dfXS9Dod77zHTBYkb+3CgJrHTBTYebMmXJejoPfrcpjMU8vvGRJWireFpPuKjCmuqxS8bf3SioxSa2bkY6bxcUqG3acFpfU4Fcb05O+bpxL6nl4f9jz2fs3/R7h5y1uqcXAeKwGx+7pEarvKwKHLgJdCII88P2WysZ14BcrclkHwRAF1iJo3Oxh/bJmrF+1FRvWbcCO7U1oaemA64Uw8bAKnHnREVi1Zj0W/2cNatdbgmAqAqY/FA1BMEbeEIQ4wmXAvJNnYdbMCVi3ehNeeHIh4s1BCZRMfaWa+Z4pCN3WZ+z11eVDeuXKlbj33ntx++23S2S9fTFD4eyzz8ZnP/tZzJs3L9nW2T6IU2MXeB6qDyQY3CnTncGgPL5INGxlQAba8Weeu7t0SD70WTCI57EEgQaBhpgpfzzOKh88PxUSjoPvkcDwupTyLSHiNXgsA/84Dhoc7tz5xfHyHHSLWEPPc/N3TAllzADPx/HYYyxxsXNiUKZtH81zWKNuDRuvwTHyHMTllVdewS9/+UtpJmVJCfGYO3euuBgYpEhjx3HzHPxue0lYPCzZIS4cI8/LL/7McdtiSzyOYysrK5Nz8Ge7dqmGmOezvSs4Tkv0+Bliw/FZF5lty8050RXC9zlGXtvizuOIBdean7Hpm8TVtu5mYSiOmYGanAfPz9gLqlB0aREDS1o4Pq4nr22PI64cKz/DefE4xmloIGevPyL0hIpAn0BglwTBjN4QBGYMyHerKESAjnqgdkMMa1dUY/3qjdiwvhZNOyIYO3kUTj//eKxatQ7v/acK2xmDQAXBSyMIvq1mgSXWVBAFgRUbnQRySBBOmo1ZMyeick2NIQhNAQTiuUlQ06sYpBOEhOeiyA9SnOFnMQRDqQ2iD9z67A9B4IOfhpPGnJI5/eosG7xt2zYxijQaNN403DQyfIizGiCj9emS4M/W8Fijxwf/2rVrxeVhj6cRYBDf4YcfjjFjxohBoYFlEShWJKSBoIGlG4TjeOutt5JKCA0Nr8tjeT3Oly4V7uB5Do7vyCOPlPPz2vw9z8ndPo0X58HfW2PM7zwnDS6/7JxsOWSWRuaceF4aQ9Y64Bcx4fnYfvqZZ56RMsuWYPHzPP7UU0+V89GI84u/5/mmT58ugaDW2NIwkshxnJwDvzgnazR5XTtGun9oeFlDYeLEiTJP/s6O0e7UOT6Ok8GTNMScJ3GlcsS1ouElWeI1ifvmzZsle2XGjBkyVs6Lx3MMnBdJiT2WmPMe4TG1tbXyM78TA+LLa/Ee4dgOO+wwOWdFRYWch+/z81wPzplfPM6uDz/D+RA/qi+8JomC1uI4cM8MPbMikI0IdEMQqCKYMso0p8akdlYN4E9CFKIuEu0OWrfHsLl6O9as2IT1VdtRWFKA4xfMw+qV67DkpY1oqHIlSNElAfB7C5gz+qEOgTgSgYRREFymTiYQKgWOOGkOZs2cnCQIMRIEX0FgAoUdUdJpkBqDwN2R66LYJwjsxcBCSYHgwSEINBRWhqYBZGZCuoJgbw4aAxrkN954Q+osvPfee/LwtrtYu/PjQ9yWD+ZOnwbvlFNOkQqBNPg2KI+GjYaDMvxPfvKTpAEnuWAsxHnnnScGoKamBm+++SbeeecdMVg0VJdffrm8x7HccccdySwBGp6pU6figx/8oHyO81u6dCneffddGTuNyZVXXok5c+bIvx977DHJNOA4aNhsnIDdzVqZ3LoBaGhp1Dk2r965AAAgAElEQVSnE088USpKUgXg70kI6Lp56KGHpGKiVSL4e57XZnvYHTdx4ItYcQ2IP4nPhz70IcGKRpe79DVr1sg8+bVs2TIZK9eCpMDu/u15OA7u5kkQeC66MjhX/pu/t66B999/X4JZH3nkEdml88XrMXWVa0WyQFcUcednOQfGpnBNOP5///vfePDBBwVf/pv1G8466yzBhGMm8eBxJBd2vCQGqXUgOH8SIc716KOPFoKwbt06IR+cM4/ludLJGteCYyUJ5JgY6Mn7TGM2svExrmNSBA4MArsgCOZinQTB/Nvu2iVCgUUQ+OUCsXoX22s7sH1bGxqbd2DUuJF4f9FKLHlpE+orSRBYKInhAiyHbOiHfZEQuIG4ryCw0FEcoRIqCHMwe+Y0VK7ZjBeefBkkCE4sLJ/jCUznR3Zu8s8kPhFT1tF1XPB/xcMdLPjQHMw8vgKDhudJ/QZzQGdTqAMBqygIK1bi3vvoYrjDdzGY4MoiEoRzSRBuSHExuAg4AbR3dIhr4vHHHxejQuWgqYn9BDpkvsFgSL7HYqwrwcwIVgZksaUgSgYMwKTJk7Bgwam46KKLMGnSROTl5olys3XrNjz99FP45jdvFkNCQ0ojP23aVBx55FEYPHgQFi1aJMZ8y5atYsTp/vj4x68Q4/zKK6/iV7/6pRikSCQqRnN0RQVOOvkkMeRLliwVpaO+fjui0Zhc+5prrsHxxx2PlatW4q477xKC0NLa6kvcbHJl1pCxKfyHE3BkPmzdbXz2IZSWlsju96yzzpZUxXHjxqK5uQX33HO3VLJ8991FQpwCLFPNfiB+DAPP7bFstX8Xm50vz++I6nL0UUfh6quvxhlnnilzYf2EBx98AC+++BLWr69GU5Npac2xGGLHmha2N4ghZkyzzckJY/CgQZg6bRoWLJiPs88+B+PGjUNODoteuViy5D38+c9/FlcTz8l7r7ioGMcdfzxmTJ8u6sHi9xajqqoakUiHjOXiiy7GJZdegvz8Ajz66CO45557UbNpExJuQtZsypSpGDVqpKwj14q7fhOPkRDsE4m4f5+YMRPH4uIijB8/QfCjS4LrXFtbh5YW44rg/WTcR6ZDpiUBoVAORpSX4+RTTsGnPvUpIUO5ucbNZ4OFiYO+FAFF4NBEwPFosVMNdlI16H7CyeoHqUclgDibKLWzV4GLeAJY9NYqrHh1K7atjqC1KYZEnDUWXHlwk1xI5UOpX5CQWgjs8WCaPsUQLHENQZgxA1VrtuDFp19DZIdjCIJ8lsbR+Ds4fJd1EVhKN4fdnmj/4wgXBlFSHsSpF8/FpLnDMGBwjhAIGhLH70RpZ9ibjzjak3g8gZUrViQJAneANIKygy0qwrkkCJ/5LOYdcYQ8cDkH7hCrqk0/ARq/FctNTr+4HGLsKcBdMP3oOQgGWCnSFaMiGRxibYGSASUieV951ZVirMrLmfsfxLatW/H4E4/j5ptvxvbtNCimR0FRUTHKSksRysmRHW48FpMdOd+bc/jhuPzyy3DyyafgzTfewG/+9zdCeiJRGuSgzINNj/LycsVYcfdLo0pSQoPJY88773xxL/zvb36DF196EW1t7X4wnJeMB3ATpqYGM1JoVGng7A7YyuosavTRyz+GM848Q967//77JfjznXfeRjQakfEkXJPeGPDbkBsCZYydIR1BeG4C+QWFUr6aBu+UU07G1i1bccef7xBStm7tOiEc1M54jKXFEvvA9WP1b3YU88/JzxBf+vdnzpyFiy++WHbbdGFwvRYvNgSBhKaxsUHGQPVh4MAyIQAm3qNBMM8J5aCktARnnnkmPnLpR1BaVoaHH34Id//1bnF1EFsea+NMeEwkGhGixf/wvjZBn7yXGIjJX5s5BIM5KCwoQEGhCXrlWpt7i+8F5W8nFjfKgyXQoWBQzklSQpL28Y9fiUsvvVTIJEkBiZ0NlEx9UiRbth+az0udlSLQrxDwezGk7OhTpr9bw5ncufOHhAQ38pnqJgLgs7qmqh3rlzZj3eLt2LBuC3bUtyLWHke0LYoA2FWPho4PW1MsyRRKisMLRBAYkBAXw+yZM1G1ZqshCI0BOPEcEzjp0Bhw100jYHahfJgFchzk5AWlbHP5mMGYNGsEpswdjkGjwwgVmSAKkgkxFmnz7C2SYAkCd9v33Xsfbr/jdpGIbVAZZeVzzznXuBiO8IMUXQ9t7W3iBrjn7nvke4P4kSOyq+bOMj/PBK9R5qWhaGpukoA0Ggp+0eiHgjkYOGggTjn5FNxwww2Yc/gcFBYUYsvWLfj3v/6Nb337W6jfXm8kfo9G05yb6yDGxVcn8nJzRTKnQVhw6gK8+cab+PVvfi2SPg2yGJ1ACKGckCgf8UTcN/w0KAXifrj8sstx4UUXoq21TY599tlnkwFw4Rxj6CRozt+ZEx+qAw0N9bKb5RcNHK8zfsJEXHjBBbj+M9eL7P3wQw+LdE/3S2ubiWWwXRvFBebvaokTMbNZChxrYVGhKBvsc0HpncTgr3/9q5yrpbUpSQq48ybZ4edzw7kyTjMmT1wP0UgUsXjUN8ghDBs6DMefcLzUrqDrhvEFS5csFfJBwsedvs3+MEbZtPK2uPPCnNvpp52Oyy67TNaRZFEIwlZDELhOnJtxzRhCxEUzxNEEYPLG5npEoySPvM/NnZ7MPGHVU9dkenD9ec9wHXjeeCwuZNR+luQtEAygYlSFKDg3fulGib0IhagEshiZIeZdCMKBFef61cNZJ6sIHGwEdiIIHFCPkgDTCAK37lLi2NhuNNQCLZuZ8cAYha2oWrseGyu3oqU+CsSCCHLXSEPthJDgtp8GnkRDCEIc806cidmzp6N6zRa89PSriDT4MQgOd0UkCa7vMjBNmhBwkV/sYsSYUukMOW7yCFRMGoDcEiBAckBllD0gzOMyowShdlttUgKnxHzOuSQInxFDQgWBJaO31W7DX+76C+666y7xDdMI8EHPneXw8nLMnXu4CQosHyHGgAZxydIlIt1z59vS2iLqTG5enqgI7DPAIkv0W9fV1uFf//4XvvWtb4mhonEjQbAGRtL/AiaIj+cePGSwBBlyN8xaAq+++pq4GJa9v0wUBPPqpFgBJyQGhoa0tKwUs2bOwkc+8hGcMv8UhIIh8aWTXOSEc8Rw8is1vZNns8GGjAGw80nESTw9lJaUyq6f4x8/YbyoK3QL0HC2NLcIXi+8+EKySZPNVBg5YiROO/00DB40WEYsfRlyw9Ihk3J5pCOCH//4x0LIGKiXSpqIGwP0WGxp6BDTC4NkpGZTjbgFSAAb6hvgenSPBZCXly+4X3X1VbjwggslePP9Ze/jjjuMgkDiIy42nxDxGCEKwYAYZMYuMCiQCgKzXIjlQ1ZB8AlCqj+NygjvDR5H5aGsbCBKSgYIgdmyeQs2bNxg3CSsPNrlboccRzJYkF8gwYhUKwoLC+SeYvwJgxjtIbwOlSKu5Y9/9GOJs8gJSyMWo16kvSRDWl+KgCJwSCDQLUHo0cx2QxBiEWDd6m3YvrEZeShGXjAPzY3N2FLVgA2rGlC/hWpCG9y4i4QbRtzJlweOVRCc4hjmnTQDc2ZPRfXaGiEI0foAgrFccUnYWANumPj4KyoegLKhAzBibBgTDhuICdPKUVIeAkgM6H7mQ0vq41ivtEQyJF/GbdI7r+4UBErw5kHtorhoAM4971zfxTAPeblhcResWL4St952q8jnDEqkMePDmcoBDf2FF16Io485WhQEm+7HXe/dd9+N5559ToIM7e6PaYKfu+FzOP+C8zF+3Hg0NDYYBcEShGjUTFhaUrgiSfM6PDcNMIMDj5h3hKgI3MkuXLgQv/j5L7D0/aXi1kh9SUPw3FyUlZZJJgXlaMYvHHf8cRg7ZiyCoaAYHRpyStw2xY87aI7BzMWRWAsa3aeefAr//Oc/salmU3LHzh0ux/Ld735XxsUXFRRK9E07miQ7g82aGNFvMeB8GGD5xRu/KPPh9TgWGmW+x595PVZgZKBfe1u7GFLiPmTwEBx73LE45+xzMHfeXCFZNKp0P9Dwvv7a6xI8SDxs8CGPo4rAtWWNC5KF5cuWGwXh7nvQuKPevxE7ZXxJFS00rpopU6fIHI8+6mg5tr6hHg/98yH89e6/YitdDOLyMNQ9N5wnpGB0xWiMHWd6TZDEkHh1RDqEPP3rX/8y8Ql0JVDfc1KyOEaUC4EZN3YcRowc0alKNTXj2WeekWBTIZyiEJi0TBLF3/zmN5IVkZvXWZ46GZph6aYShN55kOhZFIEsQKCXCALjAcyugrFO7S0uXv/PUqx6az0K3YGoGDkSQ4cOQn5uITZu2Ir1VZtQs7EWjfVtiHY4cGP0wwM5AQcJREGCMFcUhClYv24TFj7zKjq2A8F4nukkGfAQyEkgXBBAQXEIYyeOwLhJ5Rg9sQxDK/IQHshau+L5APgsSzKATm0kffNzoAmC9Q8XFQ3AeZYgzJuHvLwwItEYFv5nIX73+9+BbYtbWppkt2kNAQ0OGwtx5yuFb+hbDwA1NVuEIFBuZxYBDRgNIGMR6B64/KMmC4FR6tzFC0GgiyEWSfqp6U+mAaCMPHvObDEEVCpILIqKi9Dc1CyVCn/+85+LQezoaJPbljtgStuU4Gk0qBpQEaFBZQrfwLKBsjtmfIUxbsbfTUWBnqX0l6go22qlbPItP7kFy5YtTxo3zplui6/e9FXMXzBfzs0Xz7u9bjuefuZpfO9738OG9RuSBIHBiMccfYwUUOKYRIJnUCdJpesJCWOWyE033SSR/FIoyIMoDLwWXTSnnXaaNMqSbBFpNAbZZTNl9I9/+KOoMgwkJVGx9Q2YKfDtb30bh00/TFSTO/98p7gYOgmCmTlJCs89cdJEQwyOPlowHDJ0iLzP7IYHHngQ99zNGITNfoyFg9zcPElXJAmbe/hcUTl4DioBHAPX69XXXsMPf/gDrF2zFh2Rdjkf14oEgkGUzILgtZiBwngJqk6M/aDSdN/99+Eff/+HzIuuKK7ZgJIBorj89re/FZUjN1cJQhY8u3UIisABR6AXCALHSIJgtg6JGNCyI4GFz7yLpc+vQ3RLAEUDClBeMQTjJlWgZEghOqIRVK+vx4b1DWjY0oLWug5E22IIB8OIuSQIcUMQZk3G+sqNWPjsq2irSyDo5iPA2IVwCAUlQQyrKMao8aWYPGM4yscUIb8kiECeC4Q9oxxIgIO/pelNmWA3y7IrBWGXBCE/jKamFjz55JMS0EZj3NZmGkAVFBSJEfniF76ICy68QHaoVsLl7q6udjsefexRUR0YJ9Da1iLEgsaC6XD0h9PwcJcrBOHmb8nO1BRbMrvDgQMH4fC5h+OEE07AgvkLUDF6tASi5efniSHlLpQ1BliIiD71diEIJhCutKRMJPgTTzpR4h6mTJ2KQYMYI2EMSDxmiQENsyMk0AS2GYKT/mptbRd3xs03fxOLFy0WY88Xd+9TpkzB5z//eWnTTKUjJ8y0RYDum6efflrID3f3EvRI7AoLJNaABGHevLmiGJh4XJPxsG3rNjHw3//e97F5y2bxv4vhLsjHkUcciZ/97GeYdtg0FBTkybjlbgpwTi6212/H/ffdL+oA3RusLcGYgPz8QsyYPgM/vuXHYryZSvjnO+liuAeNjVZBgJA8kr1jjzkWJ59yspAypoaSqBEbZopIDMt990kGBJWReDwmGQkkf5T7r7vuOkyeNFnWmnNl5gRfba3teP2N13HzN2/G2++8jUikXcgcMy5o3Ok2InEkIeRc6coI5QTFpbV58xb888F/SqfStevWGoLADJmSkiRBGDN2DHKYFeJnEqmCcMCf0XoBReCgIdArBIEytS2mxNip5sYEFj61CO89W4XmSmYpJBAuDKFkcD7GTi6XNMjC4kFoboljS9U2bFqzCbWb69HeHGXVZrj5MRx+wiwcPmcqqtdtxAtPvYRos4uAm4Oi0iIMHj4QoyYMxsQZ5Rg2ugADBgeQNwBwWEcp4LsgCCnTMA1T6D0fwh6WqqcE4TOf+YzsAvPzc7FjRzMe//fjYkxMMaNOgjB82HBcfc3VsuujcaBcbGsq7GjcgVdfe1XIBRtItbYylQ4YUFwqvuxPfuqTsou2CsLN37o5GYPANcvPK5BASdYsYL+CUSNHoaAwHyG/LzYJQl3dduknQQn//aXvi4QtRjsnB5MmTpKdtnUn0FAxG4EhISbVkC6ETuzN72QGXdIbzfI4aGtvx9tvvY2vf+PrePedd9HeYXa/NGKTp0zG//vc/xPiQ0k+nMv6BGkEYcMGU4PAcyWdkaRHCMLcub4RNCo9YztodFmfgX51xjJQQeAYqIiwrgEJAg0w5fR0gtC4o1GCGym5v7f4PUSiZpzhMCP+p+MnP7kF8+bOw6rVq3DnnXfi3nvu9RUEo1ORWLEOw2WXXybuD1s5kdjxWhwL012FINxnCAKDQzm30tIyiXFgjAmNNclYaqphW2sH3njzDXzzG9/Em2+9aQiCE5C1Jsm69COXShAkySZJE0kiFZ1EwpPr0L3zu9t+ZwhCxCgIHB9J5K233ipuJKmIav+m0qQ4jUE4aM9yvbAi0OsI9AJBMA/8JEFIAE0NCbz81HtY/Ox6bF/NPOsYQrlBhPMDCBc4GDS8BBVjR2Dk6OEYWFSCeGsUq5ZXYc3KDahvbEU8HMWcY1hJcQrWV27CwhcXwoubSnJjJg7H+KnlGD6+BAOGhlFQCjg5HoKyaeVWjxHajOZOsUyy3cmMc3RfCcJjjz4mxuTlV15OEgSmp1GKnjptqjzQpaxxkBkHcZGTGWTH4LqazTUimdMY8FVUOABnnnUmPvnJT4IpgkkXg68gmEwETzIOqBr899f+W3a89IkHgkwNNPcZ0w5rt9UZgvDrX4mvXlIrHQbl5YlxY68DXqO4qMjEdfg1DWykqyELHiIRU8JYKgpGTR8Fk3LamXfP+VCW/8EPfiABfrboDw0Sjdv/+38+QRjYPUFYv2G96UTaHUGggmCGJwoKKyU++uij+MUvfiEYWoJAOf3EE07ET376E4wfP04MsBAEf8eciJs0QQY2/uznPxNixoyBToJwGH5yy0+E/FmCQAVhx44GvxYDMGxYOT79qU9LOirdBcwKSH3FYgkp1kSCwEwYri9387y/S0sHivuIBKB8BNNYuzrHdiYIZr0YkMj4kCs+fgUuueQSqd8g2Ev9CZKShAQ3kiDc9rvbJFDUxnNYBeHW33YSBINHZwE1O/4M/Zn1+oNQT6gIKAI7I7CfBMHk3zP8jgSBjypmyzU3uEIQ3n1mA3ZUOlKIRVKiQvxsFIFwAmVDcjG0vBBjR43C+NEVyAnmYduWFqxeW43aljqMP2wCpkweh43rt2DRu+9i1MgRGDN+FEZPLEFZeRhhKgYFCSQClEFDEmzHFEhmQlA1cDxTltmRlEiaBhuMcGBvg54QBNZBsApCQX6eKAgsjHTnXXdKVgINqdmgOeLHZzW81F4CQriCITGyNBzMYe9MDWQd/WKcdeZZQhAY2MhAPsrp9I1THmdKJF8MmKTE/bWvfU0MWjjsqy1+hHo8kRDi8fRTTxuCIAoCSQh94bkS38DqjNwtc8duiUUyftUxNSE4n/XV67Fi5Qqpi0B53/ZhsCTBEJKEKByvvfaaXNc2HWIMwNQpU/G5z30OZ519lsQg0MXAZWXcgnUxdCEI+QWSdmhcDPNEFeH96boQFYSBk0yXpAqwdVsnQWAWBqscMruBu+WcHLom/MJcDiAEoWkHnn3mWXG7LFq8SOISSIKodEw7jAThFlFmGEdA0pfqYqBRJdm74XM3SLEmE+PQSRB4rWgsJkQplSCYNfMwaNAQMfBcsxEjyncmCG0dUg3SKghCLDxIBgkJwlVXXiUKwuAhA0U9sNG5sWhCXC1CEG67DZXrKndNEATLTiKZ+helBOHAPl/07IpAJhHYD4LgmwG/6aMtfsx4tJYGFwufWoJ3n65GU3UAiThT9hKmyqGXgIsYcnI95OYBZaWFGFMxAmPGjMKQoYPREW9HY0cjSoYVY9DQMuxobEFdQy1GVgzB4KFFKB7oIMAARD5TAx7iLLDkBKVyIumHI7lXJCvG2AVYXdH8lBFce0QQzjlHcvppuAoK8rGjsSlJEGgcbb8E1gFgzQYj6ZqdovHlG2JmS/qmTozvUSZnBD4JAv3bEoPweFoWg7giDEFgoB4VhPyCzl4XnAf9+Sys9NTTdDH8Gu+/v1SMIS1OOJyLObPn4Kc/+6nEIbDeQjBkxkgjzBfTLuu2b8dbb76FhS8vlEBKFv2ha4RG2nZItOPnfEh0WGGQ8rZ1pVA5oYrC4lIsU102sAxhlkCGCWx85ulnQPcJjb7FhIRFYhC+SxeDTxB4r/oKAgMaScpYo4HFkiRI0S82xZRKBmUyQyAYZN0B3kdGRbAKAus6WIIgxZU8D6zvwLiFW265RbIthCDcdWeXLAYaZVaf/OwNn8U1V1+DYcOHIeS3LRcXDDWwaAzLlhsFITUGgQNgRgXdEwzYHFUxMtny3GLY3hYRgvCNb35D+mdIvIlPEKZNnSb1Hz52xcckjiOVmOxEECorkzEINkjRuhhYRMl2UU3/o1KCkJHHjF5EEcgIAvtIEDqToFmDgHt3K3RyB9RS72Hhk0uw6NlqNFR6cOPGb27+lzQHUjY5GIqjsMjB4GGFGDthGEaOG4TSYcUoGzEABSVhROLGhVBQ6iCY48LxH6bdoSMZ3zY529/Oyk7H/7Bwhd5KV9jF8vSEIJxzztmSCkcjQnWABpxyN40JCQJT7qQCoBdHKBROtnS2nQqpHtCPbv354kems99PXWTwGX31V191tWQWcMfL7Aib5mg7QjLAjTX6SRBmz5otAXmp+NgYhFQFgXEBYgzDYYm+/9lPfybZDzTINKaGGRhDx4A59hlg7wRWUpSI/46I3AU2KNBI3F0XxRQQios0zpcY3mnTcN3110mfAlMsKscoCLW1onBIkGJKDAJxZVzFd7/z3ZQsBjMuBgHys3Tr0MgnYxAcR0ohM3aBigkj/iWVNp0gNO2Q1NKf/+LnUqLazokqD8cpLoY0BcG6GEhmmalw/XXX45pPXCPphrbYkL09qSCw5gQzCoQg1GyW9eaLBOGDF38QN331JoweXbEzQWg3BCEZg9Dhd/9kdsaUqUIOrvz4lZImmVSM2FolauIymFpJFwNLZ9sgRSUIGXkW60UUgaxDoFcIAlst2SSBdILQWMXMBlMn35YENihIkWA4gTgCwQScYFRSFstHD8T4GaMwbc44jBhXKJ6BIBWDZKdnm0fOc3RVBXYuCWOuks4JDiRH6DFBuM4oCDTmJAgSg5BKEHzfMo04d5zSVtivpEdFgbt7K8/z93RF2BcJxAknnoDzzj1P4gRYMyCVIMjuHJ4EPTJt8Kav3CQqQGp+O8+1zwTBP7amZrOURGZkPN0LJD40/tJZMRRMVnGUYkHSV8KR1EUqKNxFG67hSRYDd+bXfdoQhEGDByWj9rsoCOs7gxQtQTBBilQQmF5p7gUaQxIEKgi7Iwjjx42T0BVxMfjwMpiP60WCwBgEZluQcMk495Mg2PXbE0FgSWcGKe6KIDCjRRSEN99KBnqyKiTjOHZJECKGIPzzIeNiYL8GJQhZ97zWASkCGUVgPwiC0ZFdURD8dtAiKwOt2z0sfGqpKAiNVV5XgiBxAdKO0fdjUi5nlSS6IOII5MZROCSAo06eieMXzETxIMAJmy9+jrEGRoYwzX1SX7siCObTna+sIAjXXy+GyyoIjKhPJwg0miNHjcQHTv2AGEgW1eFESACkSp4f5GcrIYpB9aP4WaSIu1nuVunXf+LxJzpLLceMfJ8kCDfdJPEEqTvK/SEIvAc6IhEJtPvlL36J555/TtoLUzXgmBl4yeC88hHlojzQsNrqfmxqxCZHNMLc6TN9kO6Mw6YdJgoCOyEOYpAigwfBGAQ2ouqqIHBuDKKkgtAZgxAyGRa7IwhwpFaAVRCSBMFvLCWYkCA0NUkMwj4ThCFDZC6f+MQnuigIuyQIkubIio2OkKPdEYSOjqhREL75TSEILOHNlxKEjD5X9WKKwCGBwD4SBEloN/s7h2GB5sErBkoIAnyCUNUtQeiKnDH0slMLJJBwIggVt+PYU2fitHOPQOkIwA3EpBETiySlmvm9IQip1zyQ0Qg9URBskCILEjHYj2WG//XYv7oEKYoqEAhg3PhxEr1/6qmnSrqZ6XTYqSBYl4qtrsh/81jT2KdAsh4oUbNZU5dKih7kfKkKQl5+UqYx5M9Pc9xbFwMlefYreP3110VuZypma0ur6ZfhOBg5chQ++KEPSjAg1RGOlW4EyugkFcws4PcOP82RKXpdXQxUEEy1JasgcG4MUhSlyvWEeDH9kgThiHnzRLEQT4ZnFISNmzaKasN0Ruti4PnoYmBwI8cwaeJECQIU6d+/wUkQ2CeDmPzyV78UFwMVGbpKREGYOk0KPaWmOTJIsampUcbLmBLOmS4mdryki4FFmFJfOykIShAOiYetTkIR6GsI7CdBYKkBEoQ0F8NeEAQ2lJEqjOKjcJEIRBAuieDYU6djwblzUDaKRY98J3CXrf/OlY9SnQ+7W4iDTRDOO/dcfOazn5GKhTSM9Osz0O5Pf/qT9BSgxG4N/pgxYyRine4Clj02VRRNNz0RYiTVjEbMk92tjVPg/G0lQ0rHXQkC/dKOFNlhmiNjEGbNnmViEFJe+0MQGGjIEs23/PgWiUNgUKIpyxwWNeBLX/6SxD9wDLTAnAclbZb5pXz+7qJ3/bLOptw0I/A/fd2ncf5550uQoi3Ws21rrVRSTMYg+I27mNaXzGJgHQTWdvDrMzB9k1kSDDT8+te/Lv0VpGOmXweBxp0S/XHHHifkxcZImPoNrgQ12o6SdJ0wbZSkrKCwUAjCD3/0Q4nPYKEkm8WwE0FIiUFQgtDXHps6XkWgfyDQKwRhpyBFIQjvY7AuClYAACAASURBVNEzlWis3tnFkAqtIQgm48CUUY4iXBbBsQsOw/xzZ6GsgiHYdALL/quLgpAecdhXCIJt98zytUw/o7/9lVdfwf/93//hySeeFEXB9khgGhxbE1900UVSmIiFjKSDJetBSVS+J+4GnoPtfylFM92O3RJJJPge0wpZy4CR/mwwxM8xhqF4QDHmz1+Ar1qCkN87QYpUENh7gWWTWVWQtQIY6c8Xpe4ZM2fg29/+Nk4++SRROVidkKmaPIaR92xL/d6S92QuUv44nBKkeO55hiCwcqDnSIqizWJgbQMacKoIqQSBwaCmKJDxTkmcTGuLKBw3fPYGVFZVJjMqqM6wdPTll1+Oj370oxIUSHcFf09lgpI9Df/vf/d7PPvcs0IW4gmmIDpSxIhFlr7xjW8IoRGCkFZqmefhOVMVhPSOiKog9I+Hr85SEch2BPaTIBgXA2MQdnYxvI93e0QQGH1PksBzsZtjB8JlMRy7YAbmn3M4ykYxQNGPU+iCZt9VEEwWA7s5mnbPNNYsqsMSt4z4Z/lgoUMBR4wTjQ7jEJiRQOPFwEYafgbHMYK+uaVZfPz0x7MWPyvssXgRmw7RIPH3DFJMJQi0lNbF8JWvfMUEKabU2Of1e6ogcLfMWALbY0FcDC2t4lqggvDa6yZ1k4abwYIkOmx3/YHTPiClnulKYI8IGupXXnlFGiGtX18tpZqJAQkCDS7LCzNIkY2hSBBsDAJLQZNUSBaDVGp0kZ9fIAWPOnsx+A0g/FSBaDQm5YxvvPFG8dWzU6Mt7sRYDzZPuuD8C6SvBOM46D7gnOiOYDMk4smeDB3tHfCooTkBjBpVgYsvuhjXfvKTGDt2jOnF4NdBsN0cuR5cl+uuvx6f+MQ1KC8fvlMYrRKEbH9s6vgUgf6BQC8QBJvmaAy2xCDUAwuf7CFBEOcutXKWZI7DC3YgXBrHsfNnYf45R6BspJ/BEEjXB7KTINDIxOIJU0v/3vtw+x23g90cU3sxnH3WWSKXH3XkUWLs+aKBZ6tnfjF/XlL94sZAMphw0uRJIl8zsI+7cPrrmbsvBKG5WQogkQi0tbZJWVwaUzbyYTDfli1bO5s1+e2eCXlpaalJc/SzGMK5fqEk/97vMUE4fI7s2FMJAg0nVYCf/vSneP6558HyxLZ+A3fQlO/nHD5Hih7RtVC3vQ7VVdUSe1BVXYXm5iYZBdMC2UzoMGYxpBAE9g/gK7VQUmodBNZlkFLL3/0O5s6dYxQAewuJq8HFxo01+N///V888I8HpI+DDQSka4bHswkS+xewUyJ/R7cJGxqtWbtG4jpIKkwMiCeljGfMmCHlrdmumamY7F2RJAiN9VJMjOexMQgMUuyTBIG9GHaRMax1EPqH4dBZ9g8E9p0gGLFWUDL5DFQRSBActDR4ePnppXj7qUo0VrK4jF+D34/26nQUmII/JgCMmrkLNxBBbmkCx5AgSAyCTxDkM34FnuTadM1HYD3Hnrx69qmenKn7zzAIztbSv/3228Vw0+Bz/OzmePZZZ4uxO/LII43LAA5aWlvxwvMvSO19GlQ2VaLh5M6UBZMYyS+pjgxQpIzuegjlmGqKJBJMD5TfhUIi4X/n29+RID3utDfXbMETTz4hu2z63k3ZXoj/nwSBRXdorNMVBPHV19lCSb/yO0baQkl54mdnUSBT8KnA9F3wCyWRvLB6Ig3ww488bHL548xiSEjTIbpATHElUwSKBIpxAFKOub1dPseGUKySyTlRQaDqcM6550jJbSnWA6C2rk4CBkkEWKUx6WJgoaTjj8f3vvs9HH74bNOsyS/fYcs/19c3SJwECwBRRRAS47ESJwNBQ6LuEG8bh2DqMyRESZAqj34PEsZVjCgfgZNPPhnXfvJaUWMYk8B23Hf95S7pxcCW27YyJgkC199kMZTvpCBEolFpFc04BwY4UrWwVSXZh0LqINx0E0aP2UUdhNffELWIrh2r3JBUskvlFVdcIeWWS0tKkRPubKvJe1ZKLT/0T8GDlRRj8aisAQkq74/bbr1NakPwvksShLQ/prSSFvv+R6RHKgKKwEFHoBcIgiQe+vuJABwvgOaGBN54YTle/3cltq9hDAKphCNBdAy+M9kHZAsmtsBxeAZ+gm6GqCEIC2Zi/rkzUVqxO4KQil+yHNLBBdWPkqfLgB3//vinP4rLIMEuVvCEIDBVj6WW6RvPy88Vw0UDwAc0U/bYwvmdd9+RHSt38Uz1E4T97RmD5ih5M22QPwuSLg1vUKL32anvRz/6kdRCYNoeFQx2c2TqG39m+WM+yPkeMwm+/rWv+x0Pu4ZvSi+G2joZE5s1sRKi6fdA10e+EAT2YqASUliUUmpZqjB6YnDpLqCRY7Q/YwzivBm41sxc8Ss7MbKfsRhM3zS1Mlie2wQNEhfeM8xi+K//+i8ptUyCYAMHGxoaJL7iB//zA1RVVydbRFPRoGvmBz/8AWbPmiVBitLMMSURhucmHqzVQJcBe00YkuAhEY+bHiMSBNpZktgQIEtUWT0xF8OHD5eumR/68IeEcHF8JGEkCH/9y19x/9/ul7RNCcYMOFJe+dOf/jSuuuoqyWJIJ6xMEV25chX+/ve/ydg4RpI/qkZM8WSa45e/8mWMGTN6p0JJ7IjJ2AoSxMXvLZZ7SMpA5+YKhiQIH/vYx8S9ZDNBOCfGgbDU8iMPm+qS69atMx0kAyGJVWHVzFtvu1XagNsUU9kWHMiI34P7l6xXVwT6PQK9RhDMczeAIIJo2RHDolfX4q2nq1CzrAPRdhcBjwaNJCAoJEKKJPERHHDlyxAExp3FfAVhJuafN30vCIIlKQdaH9j9PUMXC8tKsw3wP/7+D2kJzF07H/A0LNw5n37G6RJ4yJiC/LzcZAlfxhRQ6mbL5wceeACrV62WIkdMo+N7JBk0VpIuGAgkA+u4w2ZgIneyJAjl5eUSKEeJneWUt9Vuw1NPPoXvfu+7oEElsaDxY0rfSSefJC6GmbPojujqYrAEgTn/NA6cE8fCV15+nrgwqEqwTHN6FUYxOvEEli9fIdUAGXzJGAO6Q+JxKiNUB4LJ9EAadCokDECk8aIasGNHk5Rr5u6fnRVZO4A9Jvg+axrwhmG3SY6PhIipi1QppA5Cbp4oNNxJc3wkCHKPphAEW9GRxpCZEIxloFugsbFR1IzW1hbZQdsskeSxjofi4gGiLFhywDbUJEqmP0JQjPmSJUvEwN9//9/kXHxxzkOHDZUy2AyCHDZs6E4Kgtw/q9fgb3/7G+659x5RoHj/UCWi6+LCCy/El7/0ZYwYyWZNXS006yCwUNL3vv89mQvTTTlPjnXixEm47LKP4ONXfFzUI1sa25AeT5QmEklWUqT6w2BWnt82a2JK6OiK0dIZ08ZrqGLQ722IAnAII9BLBMEa5QC9rIi0uVi/uhbvv7oJlYu3o7amGW1NCSQ6mK+Qh6DHh64nfRPcoItE0HaEPAQIAtWAOP3bG6VA0L/+9S8xytyJ0njxQU3p+5IPX4IpUycnd4C2FTLlZUbGc/fJtr00MqxqJ0YrysJBrmQsUOblw5vFlHLzcsVwsF0z0yJpuE886USMHDlSChBxV0y5mZH3lLqlaiEDIHPzRDpmPv7EiRN2avxDgkAZni2YH3jwASm/K5kFzDvxZf9rr70WUyZPRm4uq1l1/UuhUWtqbpG50H3y8ssvSzAmJXoacfrjiQdjErgzZaW/6TOmi8vkpf+8JCSBZIbXYsGoSy+5VHpLsPQv+xcQs8bGHTK3P/zxDxIfYHf4VCQYE/CJaz4h5w2GzOdTCQLHS/va0R4VGX/lipWSkskv1lRgXAiDGanOiHEPBmUs/GKw6KRJkzFnzmwhIGxHPbCsLNlEKhKNyS6c7o9nnn1G1BMaeBIEKgzMSjn7nLPF+KZnMSRcF+vXr5dqjVRHautqZd2JPT/PmhhXfOwKDB4yqMuacX4dHaZA1Z/v+LMQOumd4ThCkBhPQfXq9NNORyFdW6zx4BeB4nrUbtsu2TRs2ESXEEkS8aL7iOrDl7/8ZQwdNqSzi+PB5eKH8GNZp6YIZAcC+0gQ7JPW9ME1//XbK/ueg9aGGOo3RrBhZSNWL9mIqlXb0Fofg9seRCARQpDFEz0X8SAQD3pwnUNDQTAGyhQKYn49jQQftJTP6ZenUR8xcgQmTJhgdnG2f4F/P9hCS5SGaSTYipiGigSBGQoMjKPRLCgsELWAEff8zi/W1ydRGD5suNRMEKMtlQNjcg66CEgypBKjyOSeBMzRv19SUrzTHcmxyLEMzFuzJilXSwVHOHINGt+y0tLkjr7LSUiWXFeaUVWvr0ZVZZXMh/EVDGKk7E3VgH71YcOGyRcld46RpEjUjjhLcQcEq3Fjx2H48GEI+9kWnAKVFUrwjPmw9SOsW4Jzo9+9ZMAAMaTpLgZLEDhPdhwlceFunSoOm0oRcwZ9ci2lAmR+vsRNMLOEpIaNlhh7wOqGpiJkZ6ZEPOGKW4H3QE1NTbIcM0kT1Zfx48eLwZb4hjTkmbrKufA4YsY5Sm8OX00h8WNfBbqnuuzgBW9P2nuTJHD8cs/5vTrYxIsVNkm2wowj8JtP8TvvQxIltpbmWvOavFdtvw/eV7NmzkJRcaGMdqes4+x4nukoFAFFoBcR2EeC0FWrpWm3DzlKlVJ9Lg64bUBLXRw1VTuwfnUdNq1rwMY1dWhvdBFvTyDoheCFHMQC7CvgwWGKmu9iOHbBTJxCF8Po1E7N6UGK6UjsnNnQi1jt1anoaojF4yb/3zO7T+4giRR3/4whMArArhtIRSJ+G+dYXORe9jKwQWc0LNwl21LFNAKU4u0ON5V4mBgHN9lUiNe1vRz4+bzcXOlTsKsXFRGWPba9NOS7PyeOQUoYpx7uN2sSQyItn821JS2T82hvFxLAIlF0i9DgkizIv8M5ci/wfesuEMxCLJXMWIVQsiIiDb7tAEnSZImBxAg4EPVExse4F7+nQmotTo5PFHrGTPjnIi4kdFw325Jaei343Ro5Xp6X3+nW6VRyWMDKLzDq/3nQVcA5SIChsBMTv8B14lw5p+4keuMKYcyBSWW1sQsWd3Ep5eXu2v8vSkJU3By2cJZEUgQC5v4Q9cmstogjjv836xMlzt0GVPLavG95HO85doC0qsNe/UHohxUBRaDPIbAfBCFlrrYNnTzXXDhSEtkFErQOJAohNNW52FrVitXvbcHGNQ3YtqkBkWbXfMRzjfGUNsYxhEviIEE4uQ8ThCQ61iKlG9CU3yff2oNkK4Y+3pUkcXdtjUzW+IM7m30KDEmjLMSh00QLrTT/P+AvyVzoymt3ec10EpGJ8e01AMnsn70+cv8PSPl73/+T6RkUAUUgWxHYf4KQ+jRNpiKaSHWpkOgGk0TBawOa64A1yxqw6v0N2LCuDg11bYi2A27MhcQqOjHklMRw9Px0BSHdgdwdpNmjIOx2wdMMqHx2Vw/8LkF1KTtU/wJ+36vMWNme3sXdza+nx+rneobAwSQIPRuhfkoRUAT6OAIHgCBQs2Stf1q2PEMQZOdGHde4HtqbgC01EaxZthlrl2zFtnXtaKtvR7QjgkSiHbkDXRx76mycct4MlFV0dnKUro+7fR16BEEC6wS/zh1w6i5cAtyyzVgoQTjwj4VsW/MDP2O9giKgCGQYgQNEEEwqnCEIvobsSDEEP9UxB27cQUujiy1rYlj37jasWbYe27fWo7mlCaECKghzMP+cORhIgpBr/KSHFEHoZqH36CJI9e3b47NR/04ZZ4bv5351uT3eL/0KDZ2sIqAI9DYCB4AgcIgmFU66NHrWyWx85wzeMxkPAOv/xFuA5m1x1FQ3itth1cpKdERbMPuI6TjxA3MwZEwQkGB8E3WfdFh3G0bdRxSE3l5FPZ8ioAgoAoqAItDLCOw/QRCr749qb3ezfliBF42jrSGO2poINq6vl1S44cOHYsbcsSgZGuhKEHipZNHE9AsqQejl+0NPpwgoAoqAItBPEegdgrBP4Fkd2g8vjwDxdqCt2UPd9kbpCzBkeBHChWz3bJWDFAVBiIIShH2CXg9SBBQBRUARUAT2gMDBJQgSeWcTsn0vAtMimQTBKnc5FCcSYFUlh3n6Ph9IChZKEPQGVwQUAUVAEVAEDggCB5kgSPOFnSdmfyVdINkG2pVqeiQIyTwG4QuqIByQu0JPqggoAoqAItDvETiIBGE32Kek9jGqUbrq7abSX+eZNAah39/RCoAioAgoAopAryCQnQSBU0stv5cUCg6ROgi9snR6EkVAEVAEFAFF4MAhcNAIwm4TH1Lz6IUcmEZOXVvxdQeKKggH7lbRMysCioAioAj0JwQOOkEg2OmRBMnqgck3lSD0p5tS56oIKAKKgCJw8BE4aAQhVQ/YiSDYN1PecFKa/Owatr0txHDwF0BHoAgoAoqAIqAIZCMCB5Ug7AmQnfpA7ekAfV8RUAQUAUVAEVAEegWBrCYIu1MZemX2ehJFQBFQBBQBRUAR6BaBrCcIum6KgCKgCCgCioAikHkElCBkHnO9oiKgCCgCioAikPUIKEHI+iXSASoCioAioAgoAplHQAlC5jHXKyoCioAioAgoAlmPgBKErF8iHaAioAgoAoqAIpB5BJQgZB5zvaIioAgoAoqAIpD1CChByPol0gEqAoqAIqAIKAKZR0AJQuYx1ysqAoqAIqAIKAJZj4AShKxfIh2gIqAIKAKKgCKQeQSUIGQec72iIqAIKAKKgCKQ9QgoQcj6JdIBKgKKgCKgCCgCmUdACULmMdcrKgKKgCKgCCgCWY+AEoSsXyIdoCKgCCgCioAikHkElCBkHnO9oiKgCCgCioAikPUIKEHI+iXSASoCioAioAgoAplHQAlC5jHXKyoCioAioAgoAlmPgBKErF8iHaAioAgoAoqAIpB5BJQgZB5zvaIioAgoAoqAIpD1CChByPol0gEqAoqAIqAIKAKZR0AJQuYx1ysqAoqAIqAIKAJZj4AShKxfIh2gIqAIKAKKgCKQeQSUIGQec72iIqAIKAKKgCKQ9QgoQcj6JdIBKgKKgCKgCCgCmUdACULmMdcrKgKKgCKgCCgCWY+AEoSsXyIdoCKgCCgCioAikHkElCBkHnO9oiKgCCgCioAikPUIKEHI+iXSASoCioAioAgoAplHQAlC5jHXKyoCioAioAgoAlmPgBKErF8iHaAioAgoAoqAIpB5BJQgZB5zvaIioAgoAoqAIpD1CChByPol0gEqAoqAIqAIKAKZR0AJQuYx1ysqAoqAIqAIKAJZj4AShKxfIh2gIqAIKAKKgCKQeQSUIGQec72iIqAIKAKKgCKQ9QgoQcj6JdIBKgKKgCKgCCgCmUdACULmMdcrKgKKgCKgCCgCWY+AEoSsXyIdoCKgCCgCioAikHkElCBkHnO9oiKgCCgCioAikPUIKEHI+iXSASoCioAioAgoAplHQAlC5jHXKyoCioAioAgoAlmPgBKErF8iHaAioAgoAoqAIpB5BJQgZB5zvaIioAgoAoqAIpD1CChByPol0gEqAoqAIqAIKAKZR0AJQuYx1ysqAoqAIqAIKAJZj4AShKxfIh2gIqAIKAKKgCKQeQSUIGQec72iIqAIKAKKgCKQ9QgoQcj6JdIBKgKKgCKgCCgCmUdACULmMdcrKgKKgCKgCCgCWY+AEoSsXyIdoCKgCCgCioAikHkElCBkHnO9oiKgCCgCioAikPUIKEHI+iXSASoCioAioAgoAplHQAlC5jHXKyoCioAioAgoAlmPgBKErF8iHaAioAgoAoqAIpB5BJQgZB5zvaIioAgoAoqAIpD1CChByPol0gEqAoqAIqAIKAKZR0AJQuYx1ysqAoqAIqAIKAJZj4AShKxfIh2gIqAIKAKKgCKQeQSUIGQec72iIqAIKAKKgCKQ9QgoQcj6JdIBKgKKgCKgCCgCmUdACULmMdcrKgKKgCKgCCgCWY+AEoSsXyIdoCKgCCgCioAikHkElCBkHnO9oiKgCCgCioAikPUIKEHI+iXSASoCioAioAgoAplHQAlC5jHXKyoCioAioAgoAlmPgBKErF8iHaAioAgoAoqAIpB5BJQgZB5zvaIioAgoAoqAIpD1CChByPol0gEqAoqAIqAIKAKZR0AJQuYx1ysqAoqAIqAIKAJZj4AShKxfIh2gIqAIKAKKgCKQeQSUIGQec72iIqAIKAKKgCKQ9QgoQcj6JdIBKgKKgCKgCCgCmUdACULmMdcrKgKKgCKgCCgCWY+AEoSsXyIdoCKgCCgCioAikHkElCBkHnO9oiKgCCgCioAikPUIKEHI+iXSASoCioAioAgoAplHQAlC5jHXKyoCioAioAgoAlmPgBKErF8iHaAioAgoAoqAIpB5BJQgZB5zvaIioAgoAoqAIpD1CChByPol0gEqAoqAIqAIKAKZR0AJQuYx1ysqAoqAIqAIKAJZj4AShKxfIh2gIqAIKAKKgCKQeQSUIGQec72iIqAIKAKKgCKQ9QgoQcj6JdIBKgKKgCKgCCgCmUdACULmMdcrKgKKgCKgCCgCWY+AEoSsXyIdoCKgCCgCioAikHkElCBkHnO9oiKgCCgCioAikPUIKEHI+iXSASoCioAioAgoAplHQAlC5jHXKyoCioAioAgoAlmPgBKErF8iHaAioAgoAoqAIpB5BJQgZB5zvaIioAgoAoqAIpD1CChByPol0gEqAoqAIqAIKAKZR0AJQuYx1ysqAoqAIqAIKAJZj4AShKxfIh2gIqAIKAKKgCKQeQSUIGQec72iIqAIKAKKgCKQ9QgoQcj6JdIBKgKKgCKgCCgCmUdACULmMdcrKgKKgCKgCCgCWY+AEoSsXyIdoCKgCCgCioAikHkElCBkHnO9oiKgCCgCioAikPUIKEHI+iXSASoCioAioAgoAplHQAlC5jHXKyoCioAioAgoAlmPgBKErF+i/jxAD4BjAOCP9uUAbtd/7hVI/hn36phD98NpwB66E9WZKQKKwF4ioARhLwHTjx9YBDrNlQdHWIEDePzqvK4XABLdEISeGP6efObAzjCzZ9/9fAlqOkHobwhldj30aopAX0JACUJfWq1+MFZjrsx/janyyUEvEIT+aPp2PedUYpB6Y/VHlPrBH5ZOURHYBwSUIOwDaHpIbyPQ1Vil0oPklTxDGGTP63MGa8r4fY9mbVf2sLenclDP508yCUbqpLtTCvaI2kGdjV5cEVAEDi4CShAOLv569aRikOpc4C8DKVrCzkp4khz01PD39HN9fUUEmJTJOvZnRm3Yn4ktv1JcN8oV+vrK6/gVgV5HoE8TBM87dJ76jtOfn9DGF871NGvqwPENmMDiAYmE+ZJ/O+a7XX1rE/eEYLrt7PW/pgN5wj1Nrrtrp2CFACUYRm50kgQHwTQQD+QE9NyKgCLQ1xDo0wShr4GdOt7uyE3/JQk7EwT6ERwvAC/hIRaNo7U1gmgkBpcb4UAAns8U+N1ukvdkQ5Ob6T5546QHFHY3CZKATtLM+yk3Px+5eWGEc4FAKI6AvG+DP3M6T7In8PokZjpoRUAR2B8ElCDsD3r7eOyulI/+TRCMNM7/yf/jTFVw0NYUx/YtjajfugPtLVHEoi5cx4FHkiD4J0MZuwbkp61NarxCl8D9fVzDjB6WNPp7Usy6kghmexQPKsbgEYMxaEgeCooCCAon8HNAvGD/IQhd5KaMrp5eLA0B/o1TI9RX9iPQZwlCpxyd/SB3N8LuyED/JQiGHJhXJ0FwI8DmdU1Y/s4a1FTWItoMRNoTSAQcIQn2GdNTBYGn7ruPpR4oCEl1wCCZCLgID8zFuBljMW1GBUZUFCC30GLtAkoQOv80fVGlbz5N+s6oZQPQldb3ncH3w5H2KYJgd9787rouYrFYn1yyYDAIfllCkP69T06qVwbtkwTGIkQDSLQDa5ZsxevPL8KG1VvhdoQQ6wDcAOAFUkz9njbW/tj6NjlIJVG7AjuFZJEgBF14xQ7GzxqPeUdNwuRpwzBgoH06J/oPQUjlVib2tSsx6OH9Yw/ay4/3yl9GXz2J/M0l04wsPbAKQlo60h4mmRSBunBlo0foqxcQsHFdsvfyiZzXhyL9IpEIotEo7HcaWbn/ugnwy+bdOMcWCAQQCoWEKOTm5nYhDL2w1H30FP5fPvMYow7adnhY9nYlFj73NqpXbYYTCyPg5RhHRAYDCuRP5WAHxPboGdjVdMUDLrzCIMbNGIejj5uGGbNGoWQg4MifTX8lCAYjLic3GV6cUDgI0G0FwN2F9bfLn3ovdN4SXWM/+ugfX+8PO+Ei6DjIKQgBIQeul+jcFFnW0EPlhn/zEn7E46KAG/eQkA1iAi4Coih2BiHvhsJ1rbnW+3PO8jN22kUHjhOQL7v1oEuSz9VAyANNq+N46DMKQjweR1NTkxAEqyDQyKa+spkUdNm0+AqIHX9BQQEKCwuFMPTvlzyijUQQc9Da4OHNl9/Dk4+9hMqVG+DFwgg6IcDjo8IUW+6yZ96NEe26t947lG1cxN4ddfA/7QY8OAVhTJo9BSeeMhvzjpqAQUNyEcrxce4vLgZ/uhLAyWwOeQXgJoD25giaG9vR2tSORNyF59m90053lzmMHjCfGdj98G6DXw7+bXBQRiCigeciNxTEgEHFGDCkCDkFhtzzlYwc6gFB4EfiQgQ8uO0O2upiaK5vRCzaCs91kXCCcGnskudOIQjpXGHnumv9S3+wRMqmgjFbjM9UOIh5MSScOMJ5wICyApSVDug7BKG9vR2NjY1IJBIIh8NdjGkqMegLJIEPGM6DXyQ8eXl5KCoqEiUhnfQclL/ug3VRPnjlywHiDloaY3jh6YX4270PYc2KSiRiHjzXgecl/P2EYbzJZ8Audge7er/HUjFdHgcLk724bjo/YoZHuCAfM+fOxhlnHY8TTpqDESMHImh5KAmCfUD3SKHYi8Fk00dFmPJXMGAkaS/hoLU5ga0b6rFhJrxe8wAAIABJREFU7VbU1TQg0ZGAk5A96s6vVJXSpuIeypjt5/rJX0zARW5eCGXDizFqUjlGjB+C3HxHSnB0STnuAY7MXopEXDRtiaBmTT1qqmrQ1tICz/XgOiEkjLYAG7qcHH4P4456MIT9RCTbDhe65ddDCUpWGAmCF0igcEAYo8YMx9hJI/oGQaBBbW5uli8SAO62aUx357vPdqJAeZOkp6WlRcgO55Sfn9+/VQTrW+R9mwBadrTj3489gT//6U6sWL4a0UgU8UQcrtlLJF0NuyMI8l43xMH+vid/trJjPNguhp4MdKeKkgEUFBTjqKOOwgUXn4HTzjgRFaNGwnEIMEGhGpPqI+7hRfrax+z6+b5wEoR41EHd5ghWLK7CykXV2L6xCWh3EWL2TPLl9wGxuy6fJFi/uoja9h8ktfpKgc5DIhhHMM9B2YgCTJozBtPnTUTJkBCCuXtJEHiP8nnQkMCGFQ1Y+e4mVK3eiI6WDiF6LhUEBA1BkL/TTjpvlIyuC9OFnPSkCuuhtq4SBx6H58X9+A2TNp5wEvACLorL8jBx8hhMmze27xCEHTt2oLW1VYhBTwhCtq8pjU5bW5u4TfgzyQHnRXWkX77sH7Et+OcCzTta8cgjD+P3v/s/LFu2DO0dHUi4pAeGIvDV3c6+t3f7Rj/o7bMemFXmw8+OlAassKAYxx57LD506QU4++xTMWrkaHhImDSz/kIQjF/A3C8O7xwHbjSImqo2vPmf5Vj21nq01Hb8//bO8zmy4zr7zwRkYAEsFliExea8DLvLKEYlUtG2ZEl2+Yv/I39y2aTK5XJJZckKtiSKoiTqFUmJlESJSSKX1GZswCakBRY5THjr13cOcPdygBnk1CNNgTtzb3ff0z39PP2c06cVG08rET4FLOcnn16I5AhBaGNtbpHiyUG+0Yyl4yVx1baU6vBDu3Ty8cPa2lamkspcwrMi3AvTP/KMNHhrTGfevaH337yizgu3lJ7EHRm4FyAIeI9cPrACP60oQVieX+LaLdUtrhw5gCTQThSEYDrIKKWKmlLtPbBD9z+6b30RBBQEgBQ5HiBdz3K87cKwuAqeKRyHAGlY6yrIkv4EDINDfwfv3NELL76gf3/+3/TBqQ80Pj7h5MkZP3FuKsiD3XNNEvONb1wfDoa7e8Pm3orKCj3x+GP62j/8vZ599rPa0b5DcReYhCEDBcHtGC00qy5pZ690YTODKqCWMWUmkrp2cUR/eu20Tr9zQ2O3U9LkpBIuE9cMcrmMnvmCoO96hOkw/ZV+sLVbnzN5QslEqWqbS3T44VadePKAGtrLVVIj5WLjims/ZaWkke5hnXm3S+++fklXL3SJbdCM4bQLMI0pkeWNYjAzmPNS+8hYDyuQxTVovV+Vk2QgCC4lLQpCXNlk1ikIZZUJte9p1vFPeIKwaj3tCULI9PYLDf+aM1ndGRzUT376I/37N/9d7596XxMTU8ERAmFCEPUVzEYWQp/b/FAsJrqcG6s2UhZWsYO4mGQE4evf+LqeefZZ7dixQzEX3MvEEMiy7l2sMRbWnFW+KxhYrJwyuSRRmYkyXbs4pLdePavTb9/S+O2MslMTihO5OP0i0rtY8N/QBpx3/wHS8XRSJYly1TYndOjRZh1/cr8adpYrWZNVLLxNuVDpdN+UNNQzpLPv9ui9315xBCE9KcUyCaVjxCFIyWxMSWJIZiS0/ArjLARhvf3GC5ltzu9d2vXA1ZjNKQgu83oio/LKuHbsbtH9j+31CsKijLyImz1BKI4g/PjFHwcE4YP3XUDntH4YJhXRfpjllx6eF+ajIqyT8INpK0zPj7GYKioq9cTjj+vr3/iHHEFoU3x6cp4RyzcyQQjyc2IV1AO2xmWUmazQ9QsDjiCceatb4/3k3kgpnp4ZPIGyEnbaLOIHv8luNYJQGi9XTWtChx5p0v1P79fW9kqVVOMLCMV6FOJWOYIw0DOic+/1hggCe1VjysTT7g05KHEEoYiyw3NEofo3XN/NTJ5ZF9aZCIgUgqIjCAm1727W/Y97grBqXe8JwtwEgVX7nTuD+vGLP9G/f/M5/eXU+0pN4GJgUoh0WyHqn/t+ofPAuiIIdyklMVVUVuuJx5/Q17/+D3rmmWfV3t4azM0RR+xGdmcF2oHJqlM4GJSZLNf1i/1665VzOvtWl8ZvS9nJjOLpu0dJIIUXOcBWbTZZexU7gpBJqCxepuqWuA49ul33Pb1fDe1VSlYH56mEhJq5H4AQkimpv3dc53IKQqdTEMgGSsbQKWXiUyrJJFWSIhah8C99PguEtWfdpWiRKWMQhGBCyCay7l3mFIQmHX/CuxiWwtILKiNKEIg/4F1SEjpAZ0Elr9ObbA7OgX8GguBcDD/Rc998LlAQIAi2qkP2J6sN0mIuK6Xb8kTyG0vXPJu7YZ4mcsUUwoh5lrkSlxOIWFFZNaMgPPOM2nfsCBSEaYIQPFg4gcpKtG0l6wie0FQEAjSzSo+X6sbFAb39ymmdffuWRvuzykxmFEOrDr0CKbyYzi/mmpV86lWuyx22JpUkk9rSktDhh9t03MUgVLoYhLuCEArheY4gDPRM6Nx73Xrvt5d07cItZSboL5IkBYnTIAZx139zF1ioulW23ApUH8QdmH5oZCmbiBGvqJKqrFr2bNOJJ/Z7F8MK9EbeKqIEwZIlQRA28mpuTnsHrmL3ykzHIPxEzz3/nD74gBiECRd9n4jHlc6k3e6PkmSJyyMBueLFTheuS6dTSqejUsNq9fbq1Ms4IqjXKQjf+EZOQYAg2OotF5Dn+MJ0NMLqNHYFajWi4OjCWEzXL4zq7Vc/0tm3r2t0IK1ULs+GNWXGxbACjdtwVQS6TaIkptrtJTr6cLtOPnFQDTuqVEIMQjhKsRBiT7sYJnXu3S6999uLjiBoAsUHeZx3LIjEn956uuEMunQP5H4IuGJQW1zIriPNpK+PcQxATVrbd9fpxFOeICyd0edZkicIeQyWIwjOW5zNaPBOTkF4/nmdgiCMTzjyZAd1ueOMy8pUV1enffv2CZJ17do1dXd3O6JAzAJ23qyvaYLwBC6Gr+sZFIT2dsXjdorjjG02soIQ7n9Tg7Jj0vWLEIS/6uzb1zTan1YqFSTi8gRh8b8Yi/mIl8RU15zUkYd26uQTh5yCUFq9AIIwKQ30Tuncu7f05xxByIYIgsuMGTpLYPFPsIFLcC6YgCCQ7ZJNopAEdjLESP9fk1LT7lqdfOqAVxBWaxh4gpDf8kFSohmC8MJPX9Bzzz8fKAh5CALbXRsbG/XJT37SRehDEMiZcPXqVZeEajOTBCMIjz/+uL7hFAQjCNETi/KfZ7Jav41lr5fxNSbduDiqtzxBWBZzhwlCLQTh4YAgbNsBQYiMt2IUBE8Qlq6f5iIIJUklq9Nq2r1FJ5866AnC0ll9fiV5gjAHQXAuhoxIjvXTn/5Uzz//vN5/P+diiMXcwVakqeYaslDW1NToxIkTLmMgroZLly7pww8/1JUrV9Tf3y/O8diMSoIRhMcee8wRhGdz2xztkLNwD2x4t1Zo65sLUckpCG+Zi8ErCPObwApcHRCEdJAoKUcQTjiCUKUypyCEWEExBGFKGugJXAwzCkJW8XQQhb+SCsK63wAxTRBQEQhRDOJynILgCEJOQXh6kysIgIb5Y8OJicKfz/Y7sANbFjqxeoKwcILgfMihrQXEbbS2turee+/V8ePHXUwC5ODPf/6zzp0759wNxRKEdXS4aVETOjEIRhBMQdjUBCFntYAgjOQUhOvryMUAPBVC1KKGxjwvmm8QZi4GIRnTlpYSpyDcRRAI/gyTtrlaE4pBOD8dg0CipIAgBMlRSLkcxCEs9ytqiflVOZsdiy2lmH4oUFaYIHAWZjbkYoAg4GLYVauTT29iBcEAA0CYmppyK1LA3t7hTI1ca98zuZofnIHoCcLS/hwNoOdSECwGYcZXHHOkoLm5WSdPnnREgXiE8+fP67e//a06Oztd4GKxJCFc7tI+3cqWxtjELhAEYhBMQch3auhCx/HKPtEiaovMqwFBGA4RhMw6iEGwKN7CkfqLsFSeW0PRw/Mo2AUpJmOqbSGTYh6CUGxZ0wRhQuff7daff9Mhtjmy64StlAHRMIJQLNAWW/nHrwv3QlBzsS8bhLNRjGJKKtQXRYyN6SBFdjKECEI8iEFI1qTVtGvL5iUIRgrwT/f09Kirq2v6IChSHm/dulUNDQ3asmWLUxhI8dzb2+tAhu/5DgDiu4WmRPYKwsIVhChBoCT6AvfCwYMH9dRTT+nIkSMuWPHFF190MQnEIxSrDmwUsLQgzqiC4AmCuRjWM0GYHzQVC2Gz/CqL3Op5990bgiDkwfKNThCCXQybOAYBNQD/dkdHh86cOaPLly+7o6R51dbWupUoQHPo0CFHCAAafNo3b950/u7Dhw9r9+7djkCE5dr5AIsnCEtLEAA9+oM+e/LJJ7Vnzx5dv35dL7/8ss6ePTtNAAud3wGJmK/SsLjJd/nu9gQhZNsNpSBMa1zzWr8ufKQVWrXORis2gIIQOvwpJ1RMH91m6/1i1v2BhdaDgjCzzXFTBikCAPikAfzf//73jiSgJODH5jvIAy4HAAaggSiw+nz33XedTxs1gc84Ie/AgQOOUABO3FsIfMI/I08QFk4Q3E8tFIOA3ZHS9+/f74IVIQkEJhLYSL+hEI2Pj7ucALxxH5mriH4ASPmLQsQJmxzDbf1J35rbaeET7Nx3mgtrOYiJuRjCQYpeQQh2MeBiCLY53piOQQic2HdvdVyafg/73PNBSj7fchRQ8oXHhcsqHqruBqzoE87VluKtgYKQzMUgHH5op048GQQpum2OuXTfRbU4lCjpQsTFwFkMQaIf4g+CHf3z0Pzz+w9CIyA4+Imycwm73d/cBSSDCpUw97PMRg7ykD0LpJhO9xjtj7niEBbrYggIQjN5EJ7chEGKkAEC2H72s5/pL3/5i1MEAHq2yDFx4ko4deqUbt++7cDmiSeecIoC6gHXf/DBB45AEDH/6KOPateuXc7dYDJ3sT8fTxAWThAgBNiPN0AP6LO/H9JGPgQIIKoBrgW2PUIOAHlcQ/RXS0uLc0dwL31JeZACrkVN6uvrcwTDVAnKnw/5K3YMcJ0RE+q3OIliXSGFrrMYhOg2x3wEYT5tXpfXRubUzKh07eKg3n6VTIoQhIyCc5qKgqz5myBMPEgSFArQI4J8OrNlsMtXMQcO4Xe4ynxr14W2+27DWBbSux+wmMC4fCbJEQR3mmNAEFyipGoWUyESVsiaEYLwl1wMAqmWjSAA1QQpLooguMd0qZbciZDuXDh3rgNlZ5WJkysgKkXNkITZe2AuchAaCJas7C6CEK6vmH5YOEEQ+VES8YAg7K3T8Sc2IUEwNeAHP/iBA4VHHnlEDz74oCMBAAbb4iABr776qltpsr8eIoDCcOPGDb399tv6wx/+4OIUPvvZz7r7URGYjOcDIp4gLJwghBMl0UckSsLPzg4GAB9igEJ069YtRxasb3bu3Kn77rvPKUDcY+qB9Tv30feQQSMIkD9cF9SzHC/agGpBOxmPtL/YlycIxVrq4yeAoiBcu3hHb796RmffvukUhGUjCNOh9QGE5HDIztHkSEK3JZAjNWNuyx5fBZHl7uCRu44nzAcA8xe7Zyx3t/sgaFsxQFSM7TNKJmZ2MRw3guAyKQZtLgLOnME4i2Ggd0Ln3+nW+ytAEEjbjNlzdEGZOOdC5ScIUVr5caJQyEXjKGHOoOG7F9IPRVjUFRscahUOUvQEQXKrw1deeUU/+tGPBGB87nOfc6AByDPhMllfuHBBP/nJT5wPG3LANSTj4TuAh3uZzD/1qU/pM5/5jLZt2+ZWmz4GoZhJY+5r5rOLAXsD3JA1FJ3t27e7PmP3AmSO/qI8ixOpr693fQ4ZRBUw4gBIozLgimDHA+qRuRgghsj0y3lGBm4t2kob+O9CwG8WLHSdVxBCYy2yEFs+ghBxA0T33SFRGwDHOHclIcVSUmxKQa5giCi7qXKf5bLcBQCC8jB90lbu4cIr0EIKyGyujZk2b2qCMM3ecsQlZ5asIwboPME7x+AiMQUz33y8F4wgFFJ5ctc5wkjxYbAvlgQujiBkE3G3zbF531Ydf3wTplom4PDnP/+5IwC4EL74xS/q6NGjzk3AqpE34PLd737XBTCiLnz5y1920jTfffTRR0J9wBWBdMvecvbgWxxCsf5qryAsXEEIp1vG7rgLcC1ABFANAHjAlv4K9wcgj0vJyIERBHeMtOQkfkvRHG4d9+XLHbB4OpSbamIxFwczH/UgWOjNvcLwBKEYgoCLAQVhqVwM4dVicChOADfhyT/t5v5kslKJeFlADuITymbimppMur+KTbrPYigLLpEN5IAtfcnQajPX/3cpDHORhBnwCIaOtSlyivoaVhAuvNOtZXMxhH/QOa9PNoaykw7IgbM9Ck+OrN2l8AS2tK64mwqECUI0asH+zTWoRRDDVNA39LfVZ2QB5WXOn30RRGIOBcEIQsu+rbp/MxIEwOO1117T97///WkFAaJgCgITNZn4vvOd7zifNH7tL3zhC87HjXuCQEXIBQDEdjpUhKamphUjCLNtqzTZfT5ujqUCuKUspxgFwZQacxEA4Ow2sQBUy5wYtRX3QSgshsFUAoDZSIcFCoZzXbgpN5z5LbetstiV/Fz2sXJt94QRmkLgvxkJQnh7az4iPueW41kVhOUgCAH4BlUC6nHF4sjqoE5KJWUxbW2oUXVNtRIJMuEDCMTUJHSnf0KjI5ManxhVMilVVpaqrFQaH5/SyOCU0ikCagGJhOIcfe5Wm0FdNmY4ayMYv1KW003ZmcOhPLF4cA6HOwk1aKOjDLmx7TBoxv8RGbYLkbuzKknEVJNLlLRoF0PPuC6826P3X7ukqxe6lJoKTnN0FIz02bHgVIE5w0iijxHCa/vK/Y1lVFFZrpraMiVK0hodm9D4aNa9Oa8jHksom00pm5nEM5SLqQgCSLC7s6krGzVoxsYcIEefxF0+nSAWxeax0tISVVYmVVmd0OjYkMZHM5qazCqVtpYF/YcjygLq+e+Pz/lRpSKPcsGYdEGWlgch647g3vQEgRUifub//u//1uDgoJOmH3roIbW1tblVItsdiX7/9a9/7VaaTz/9tIsz4L+Rn9966y0Xg4CcjXrAvZYvwX5RxbgaFqoghCfBcMZHk6ZXIwAt3CbaYQBNW+breimGIITBMWrrsLqQjyCEQX0uEI4ShCjIm6JgwL5YklTMmInWUYhEbDQFgfEOgTe30bxOPs1HEDrCxz0vlYJgK3OOHWdi5qTBuGLEFMQ53TCjrduqdOjoHjU2VSsWn9TkVEpZh86lunN7Ul1dA+rt6VEyWaLm5nptqSlVT9dtdV7p1cRoVqlUTDjF4wl2A7DqpC6jCQFghMEHUHJzBSf1OYIgZdO4OgLgcsF4c6rfd0HnPIY6BCHuMikSpLhYgnCnZ0wX3u3V+69d1pULt9zpm5AvTiSEKwVBiqgvczTRRBfjQhGC4NbxnHpcGlNza6P2HWxVVU1MXbd6df3qgPq6RjRFcGQ2EZADhQiCIweBXV08CaemYt+AITjmEARX4/bEJe0sH/w7nlRNVbWaW2vV1l6rnt4u3bzerzt3xjU1hYoE0YCUBMn83NH26eBz16dzvvK4HVyMhaMaQaplGp2IKxuPK7klrZa99ZtTQWCCQRkggQ5b4AB+tsexi4FJn8RJpOclVoGgN7Y64rPG7QBxIAaB+AOIBQoC+RDwUc+HHHDtfAmCARH38d+AMM9iIEzbea+GgmBExVbw2A6FBeKEMoN9im3XQgnCdNBT7rRHW/XPRSBmUwDCq/owCIfLsiRZ1h+FwLrQrFrINZWv/EJ1bjSCwHgnfwkkn7HO+OL3a+N+TpK1agQh6abgTDaQjitrEtqxs0H3HT+kxqZajU+OaHBwRKk0WS8rVZJM6vbtAV2+3OlWqjvatqt2S5kud1zXxTM3NDYsZdLs4gliF2Jx3GiBj1y2MyBAqBxJuFvSdkQkg7LgTkTLqQiFUhSH3SaFRnL4+6UjCHJnMYQJQqAgzBCEbE5BKEwQwqL+NJnI2nHRHHucVVV9ufYc2qlj9+1WU3OZblzr1gfvXNL1ywMaHZ4QOyhQEEqT2DlH0HLqgduUYqRguk8CuwQqTtwpELYTi88S8RLVbqnVrr2N2ndgq/r7e3X6oyvq6x3RVAoiGMSfpFKcQZNzctiR2S52JZ/CE3VnhPpmmiDkTnNEUkokcgQhpZa9m9TFwKRKLgPA/o9//KMjA4CZxRAgN/PfkAZiDNgCyfUoB2xzBJjxd6MqkDAJADTwm88qcD4EgWuNEDA5stMC9YMJE2md4Dui8omjMBl9Pj/jxV5raaixLQSL2A3UFrYVWlAgvn8CCgvZKB9BeO6555zqQ4xAGLyt3dg/GkRogBsmJuG6w3J1Puk67HIIKxFWhh0YZWm6Z+TduAMs3uFy57JxmNzMRlqwcTSAcbMRBMY+7j+CUBn7kHq2rPIbJA6FMRCsnvNJquHJMciDcG1FFAQIAmCeViKZVUVNTDt21uu+E4dUUlqqrq4e3bzZq8nJmOq2Vqm1vVZlFQldvXRdk+MZtbY0qaa6QhfOXtGFv97Q1BgxCiVKxMtVUqpAgUijQkxqinTxkpIlJSpJlgQytgJA4i9S9eTElKZQYVI5NMudnppfQViocjA9ipXMKQicxbAYBaEQQWAlDNRx4NCcr7sSH9k/AFgjCOBwWlvbtmj/fbt1+FizGhoSGugb0ofvXlPHmR7d6RvS1EQalqXy8qQSAL5TZ7A1cQpSijk7ncql6E+4/kgkUR0C90BZaZlzFYA9Y2MEJ0t1dVt18HCzDh9rVN/tbn30wWXdGUi5fpuaSmlqkvJiKi0pVRzXFCrCVFrpVNDvHz/cYo6ARU8QZh8mlknRTv0j8p0ociYWQIyJh8BFAhMBNgAZ5YA98kTMQxr4zrY35pvgC4HufAgCIMSESJT96dOn3S4LgvF40QbaAlnZu3eva2+h1Wihts3n+2lfWCzmfgyoMxAvYjUgNbhu7rnnHmcz3DKWojpfHWFAxT6QoBdeeEEQBHJTQBDyvSB07CQJA4OTTuMBWNsrqgyEAdb+22w3G0EIAzg/bt70jZGksrIyt6rlb7GqSbTd7qceWhHw39iCMRomCZuNIGADiOLvfvc7N84gxowrEmMRI2TbUfO6HlZYQbAIBOdiQI52q/20Krck1L5nq048dEyTk2lduHBJly5d1/i41NRcqwOHt6t9d5O6b/ZqaHBMW+tqVVVZrvNnLuvyuR7Fs1WqrW1Qw9Ym1daRnyOloeFB3bh1SwMDd1wCoq1b61Rfv1VlEHL3GwDEkhoYGNTNG90auD2o1HhKGXzbOYLgxtw0sQoTg4XEHoQIQjKuLc0lOvRwu04+eVgNOypVUm0++9yqutCEQxOmpP7uMV0kBuE3V1wMwlROQXB7C3JbEosjCMEzBaSI/yZlfqA8uB0LibTaDzXp0Ik9ammrUjw+IqXjunFpWGc/vKGeG7c1NZ5VRUWpmpoaVFNTofKKcpWWlaqivMLFd9zuv6Oe3j713+4XLp6GbY3a1rBVJaUJt522tqbWEdrBoUE3l/f1DqqktFz7DjTp8D1NGhjoUcf5bmUmYYEJDY2Mqre3X+NjU2ppaVVdXa2LZejt7lNPV597DJdPw73y7X6IGNkThLkJApMyQYeALoGLTL6AEhM7YEPgoSXIAQQgCVzPJMSblTvABAjy4r8t2KTQKpnriyUItnJkEAG6KBn8N3WYvA1JOHbsmMsFgLpRDDAVApdCv9nw95YzACJDEqo33nhDr7/+urMZdkJFYBKHxJChEpIFEcu3dTAs2dtxz6Yg2G6DaNsoCyISfm5bSeazRaGVvZGEaHxBVIFgzDAmcDlhA8voyGoWIlRMPMhsLozw59iEXTPLRRAon3FmNrM+mM8YCF9bzPgvVLa50cLXQRBQ/n71q185lYp6UBAgxhAF8lswDvh9fsz2K0gQcvAzPVkzXWcIn4tnVVod04692/Tgo/crnU7p/IXzunzpulKpuLY3N2rf/h1qbKpzv3HGVkN9naqrKnX2zGXdvNav2pptam1r1tZ6FLmEYongRNruW73q6LiiifFRtbS1aN/e3aqsqNDIyJBS6SnVVNdofDyjK1du6MqFG+rvGlZqIthOF8QmBrstgkRA4Xehnpr9e0gS/LyqMaFDD+3QA08fUUNrlZJVxEME9QWgNjcJIRBRqZh6b95Rx7s9OvPmLXVe6tHkJP5+fOnBBkQH9O798deMpsS1LiNW7rqYMllW4zElSkgUlFLllhIdvHen2g80KqsJDQ7eVt2WrcpMJXXhbKeuXurR+IhUu6Vcu/Zs18GDu1VWTtI1dqLgRkgqPSXdvj2s8+c6nEKwc9dO7d7dosqqpMbGxxVX0s2B6fSUS+Xf2dmtkZFJtbTV6eiJneq6dV1dnf0qT25RZfUWDQ2P6GLHVY2PprV7917t2tWmkaFBXTh3WdeudLt4Ags6nSEIcwRjzEUQOM1xT53ufXQ3tl2yPS0LH0kF7qSJgAVSP6AN6IRPWyxUsUnETOL86JAq+QzAYVXKX1sFMrGwCrfgOlag+NAhDvy31WspmfnLZ7TLXsVMkMUSBNoJQWHlxO4LXCIQAlQOJgYkfd4A0v333++UD9paTBuWqusph7Zg3zCRgSDwHYAJ4WIi5xAli/mAKNDW8GshBIG+wp0RJQNRudmet9BzF0MQaDNjJ5wBkfoYCzyTjZdixmY+cI0SBMCR+qKukbnKLzYGwfIwGAnm3wslCUulXkXJGc/J75bxT5CwuQYZ9/Q9vwcjCYwz1Cp+k9NEYYUJQhAF4HLwubeD4nhMJVUxte5r0sOPHVdlZZkLRuvpJu9GUltqtmjr1gaNjg2rs/OSUulxtba2qL5+fTKdAAAgAElEQVSuTufOdOjGzdvaWt+o1rZ6lVcQhzShZDKuhvpGjY+mdP5sh4aGB9SWIwgA4bXrVzUyOqTtjU3aUtuonp4hnTt1VTcv92t8KEjKFY/lgJVtdS6eAQBdjHIQjMpMFiIglW+Vdhyt0777WlW9LaFkRTogCLZtIpqdMDKoAb/MhDR8e1zd5yZ0/dSwum8MacpF9xONbzkIgpC7vK9p10IQ1OkCMayHsqTKTyiWzCpZnlXD9iodvm+n6pvKXTxIX9+Atm9vUcPWBl26dFXnTt/UYH9a9fXlOnJkh+69b7/Gxgd1/cZVDQ+NqrKyRtu3takkWe36pKurV+3tbdqzd7sSpRO6datLt/vuqLS0XFsbSNWfUHfXHfX2DKmmvkKH7tula9eu6PrFm6qr3KrmljZNZbM6e6ZDA/1jOrD/oNrbt6v71i2d/rBDN68PBEmPpu0QzZWRxyJ5CAIBijC6eNWk6lortOvYts1BEJjwmFwINOTsBYLojBTYRGSTIhOcycMAHv8NuCFhmozJPZSFzMmqmcmI7wDCWX2gkT4qliBwG+DAscXsrIAksXOCAEpW4BcvXnSqAj5/JFfcDbbPfy7wKASShYAtCmoGXBA5VATcMax4LRcBdoQQmDuE5FSQBT6zSXw2F8Pzzz9/VwxCtO3mGoq2KR9YFSIJ4XusPUYwowTQYkMYO26idT7IwK0RdlUU6oeoeyOfwoEdlysGgTEMySTHh51NQn0LHSPFkNNC4yuf2w6ChOJHGy1Lpqk2kHqSmRE0bEd+oyZMu7RWlCAE69kgrY4RhCCIsKQyptb9jXr4sROqq6vR6AhBivxOAj84z9PZeUW3ujpVUVmqfft2aevWWp05e1G3bvSrvr5BzS21KitLO2UAmbu5qVWpSen8uYtuFxZ5WXa0tmmgv1/nzp5z8wcEau++/W7HxNkPrqjzfI9G7oy7DZJEKBAnAUguGUFwcXNZJ9nHqyZUsT2l6ibYwrhUOql4wmTwwnEO8Wxc2amYMuNxpXoqNX6rXONDQHywQ4RdDDPr5/wE4W4OEqkzlnTxC5nYpKrrEtq1r1kH79ut8pqYbt3CJTPkAtWbW0jE1qW/fnBZN68Pqbo6qXvvQ73ao+4ugtvP687AoFvA7d2zR+1trbp1s1uXOq5qe1OLWtoaND4+qPPncBHfdsRg7/4d2tHeorGRlLq6+1VSkdXeoy26ce2azp/qVHVpnXbuaVfllgrduIEr4o727N6r6spqXb18RedOd6q/d0yxbNK5WQLNYI7YA/vhzUIQMvGYsmVjSmxJq2o7rpuFzgKFfuFL+P1iFQRAi9z87Fqwk/2m7eS2pcy8Z/akljoSwQ8WyRJgI2kSMjmKApPpn/70Jyf9IqEzKbFyIViwmKQ6xRAEAyZcIMiqpH/mRV4GS/9MbATEgb9cb/J9IfMvZbeHAQFSwCSOzbGf7XDAJua+YaWHLQn0RCK2XSBme7f6CMUgGEFASbHdA2HQ5tp8L4tDCPc1/50PgMPgP5uCEK7D1IqwHcMxDu5nylanfAFzuYIW0gfhewrdX6yCAPBCdt98801HxMKqSKFxNJvdF3Kf2SxKxOxzUwAh+BB+UwIhypBMlEXGEwSa3wdKlfs9RreBEcC/jEGKlnEvIAgEkAVbHt0WssqY2vZt08OPn3D+6tt9fW7SHx9PaWI8iDXq7r6l0bFBbW9u0KEje1VbV6nz5zvU0z2oxsYmNTfXqrQsiKKvqCxT8/YWTY2ndfbMhenVblPDdl3vvKmzZ867Ve3OXbt05J6Dblvk+Y861XmuR8MDo86PHYArBCG5hASBrX0EDqY1mbijqfIBxWvGNJ4dUCY5GkTlhxNIzTFgyHQQT5cokS5R2WiTyka3K5aumCYIFoMwk8Do44XNEARLXkXMAcQ+6Bs2dGQTk2psrdaxE3t14NhuxSuy6unu08jwmJtX6+vr1N8/oNOnruriuZvO/XDk2F7t3rlLN6736/zZS27eq66u1L49rTp8uF1Dg3fUcfG6Guq3a1tjg/oHbuujU6fV2ztI2gEdPrJTBw/vcQTxVlevYqWT2nO4Sd3Em73bqexEmXbsblJz+1ZlsxmNjBKXsk0jg2M6d7rDuVrGhnGzcGgVVG/O/aozhslDEBip2URM6dJRpZLDmqq4s/EJAqBCYN9vfvObaRBlpcFqm5W2TbIG6ubzty0oTEJMSAAf/vNPf/rTzs9PYCMEAaLAxIW0z8FOEAgmKgOifABhAMV9BqSsdCwS2wLkaIvlZqD9EARL8Xzvvfc6BYHgPVMQqJdVU7HnBhQCmPlM8qacmILACg+1AzvSTmzNKo/VDcoBhIoJnB+euWeMTBhBiMYg2C4Gk7+tzrAcHQ34i8YNRMnCbAAXDlKMAlc+UmD9HSYGxayki+2DfNcVurdYggAo0V+MJQJ3sbMdHDWfMRC103zvjV4ftZ8pHZAZSDPuQmzAeOf3wyoPko6rDYWKVbNTEBxJu3vD+/ITBFvH5QgC0fVsZ6vIqG1/kx76xAllUxld6risa51dGhudUmqKHCJpTaUmlNWU2tqbdPSeA6rfVqXLl6/qzsC4Wlvata2xSuMT/RoY6BPJdXbt2q1ErETnzl5Ub++AmhqbVV/bqCsdnbp08aoLbNu1e7fLvaDEhC7+tVPXL9zW8MCYsrmdD4HvnhU5q/4lcDE4k6OaZDWVHFRy67hqW0uULRlRNjmBKUIEYSatVN7fIxrHVNwpCLGBWmX6tmhilF0ZQezEvAiCy2xp2RDJkphRmhicbFbl1QntOdCkI/fvVcuuJmUSzM/sWEi5IMTa2mq3m+BKR4/OnenU4GCP9u1vc66tWzf6dPqjC7rt4q6qtG9vmw4f3KX+/j6nIDQ2NquluVlDw8M69f5p3bhB3yV09J692n9gp8bGptTZ2eUIwoF72tTfN6CP3r6ikdtpNbZt0b7DrWrcjhs1pqmJrC5fuKGzH11Sz61BZaZKcwQBelCEeuAmK8uDMLPNMYWruCSpePWUYpWTSmxBmSg0yyz2V74E9y9UQQBIWM2+/PLLLrKeFxMHIA5BYOVqwVm2zZFrAB4jCMhzbKsiQBC1gMyK5EZARuJQn3feeUfvvfeeu4dzGdgaySrGVroGNPnMwIRn2xXDBMGuNcC0DI64GWiLbR/ELkjDTO48CxMjwYDFuBiWajKnDdjQgjQJuLFgSmzP80N8sAkEi0Ay7I8iw+ouGnFuoMCzG0EIKwhmT+o1SZ/PLBuiyftGMvIRhPkqCFElYC6CEJbG56pnLiVgNlI5359SsQQBogoRZnzz12IdiiE40TYt5XQSrR+STuwBSgeuNQgo44egYogB4wryjruP8RaOJbrLpb7sCkIQLhZ2MThERMkoTWnnoWYdf/AeTYxM6tL5K+q8elOjI5zFEHeBiy7XTyKt1h3bdPTeA253w6VLVzQ0NKWdO/eoZktCvb2d6u65pdraGh08cMjtoz93rkN9vQNq3Nai+i2NunShU+fOdmhyIqt9+/bq3hP7FC+b0LkPrujSX29o7A5BdST9AS+COATW01kXxLe4GATnYonHFEvElNwypdZDNTp0ol1VDXHFSj++G2lm10ee1T+pfMaymhhKaeBSRtc/GlH39UFNpsJBihaiV8DFkIcgkGUSdaemrkwHj+3QgWM7VVKW1K3eW+rq6nakLZGIqW3HdjU1btPgQEodF26qf+CWdu1u1NGjB51yc+F8h1MYqqtrtGvnTrW2bNeN6526dOmimrY3as/uPW5cnD97WTeu97pdD4cO7VRtfZX6eod0/VqPi4E4cny3+nr69f4fOjTYN6W6xlLtv6dVR48dUGVVha5dvaUP3+vQlQtdGhqYkDIluRiEIOxzoS6GNIonMQjVKdVsL9GOw/UbnyAwkXCuAlsDAU9OYLTti0wu5tcNA48FKPIZCgRqwe9//3unQgByEAHK4jpWXHxOdDWy+ec//3k3SbGqKTRZzqYg2E/EjiLmOtoAEcFNAjGhbpvIWYWjYFC/rZoKTe6Fvp8vGNnRycQfYCsCKlFemKRxwdA+mDYTNys9O2452o7ZCAL2NQXBgDfs8zdiV8j/b30yV9+EXQzmyphNicj3efR+O+NjtrMWom1ZaYJgJC98WFQxO2FmGyOFxn0xYyufDSDT5CLB3QZR4MVYQoni98jvDoUKsm0HbE2Xs6IxCAG8hoMU3fY7YlTK0tqxf7uO3ndQ40OT6uy4oZs3eh1BYI88i25keQhCy44mJ2HXNlSoo+OyhodTLoK9paVWqfSwhkfuqLyiTE2N2zU2OqEzZy7odt+gtjU0O4JALgXAaHIio7379urgsTZlE0O6dPq6rp3rcfWjrTsXwzIQBPebTMZV2RjX/uNNuv+xA2rcUa1EBcmd7iYgc9ERpPPspDTcN6bOU4M6/eZNdV7q1eQUbhbbxRAoErMFKd7lYpgOZKTWtDKUkUhqW3Ods1FLe4OGRoZ16VKHrt+46eadZDKmXbtbtP/APsVVrZs3bqt/4IZaWmt09NhBpyIPojZMcYJlmZLJMqc8nDt3RncGe7Rzd6uOHD7i1OWe7jsauD3mcidsqS3X+Piwrly+6T6v3Vat/Ud2ucDV0+9c0e1bo6qozWjPke26/8QRbamrca6F03+5pq5rw5ocS7msmoF2QMwAvbmwIEUyUcaSCZXWZtXQXqPDD+7Y2AQB8AdYvvWtbzk5kpU/4E5Qoa1cw4BhwAPI2Oqdv8iZHPPMGQwAPyTggQcecCoEIMi+7JdeesmRBw52Ysshk5SVlw8E+a4QQQiTFwYpgZG4SwjSYrIEcFALLPCPvwzAYib36Kq4mEl7tmsoizqRqgmWxPWC24NnxOWBasAKD9cOhMECx/KtsOdLEOir8M6TsKow28p/PgqCjY9wWbMBevjz8JZB+smOdOa/o/evNkEwtSwcV7HQ8bEU5CA8zsK/HRQl1Cm20aJUoaRBDowY8HuEeNp4vOt3t9oEIReDEC/PqKGtRjt2tSgzFtPtW6RVHnQEgVAal2ALNItPqaGpVjt3t6hqS4mudt7QyHBKLa071NJKDALuiCDYr6SkTONjk06JGLwzrJqaem2pqlNvV79uXiNfQFbbW7ardWetMslB3bp0W33XhpUedwE5oW2OS6sgOMgmD8L2pA4/1KaTTxxS8+4aJSsjdKCQ2xzQS8U0lMuD8MHrV3U5lwfBuRiK2MXw8SDFme2VbHOMJcq0bXu92nc3qKau3G3RvtZ5zc3vztWblOobqrR7z05Vljc4sjY22auWtkrt3bfDuQhGhsddhstsOqmxsbT6+4ZcwKni4zpwsF379+9xeRBu9w0pmy5zh3JNTk2op7dHN67ddOc9bGtuVFNbk+70D+v6hW63c6O8Vtp9aLuO3XtIVVUV+uDPp3X+w1sa7Esrk0rnEmi6gMKcI22BBIGEWuzUq8uqeW+97vvE3o1PEHABfPvb33aTBgcrQRLYlRCWoG0iCa9MbeXIdSbxf+9733OgzAmQpFpG2uQ7AJEjoCkX8oDUT2AjL4sjyCfFFiIIUZmcFR5kBbcCf5nYIQjUy9vIQTGT9FIqCFYWz0q7UGsgMbTNst1hD4IULdsdz5avnQshCJQJOEAUwi6GueTvlVAQwnZhnJg7aa0RhPC4XwxRXO57IVmMKwKNbfcQ6hS/QxSDcOzNx8b3qhIEgvVyPvnStMrr4qreUqn4VInGB1Mugj2FhyEbUwowKgGoJ1VRlVT9ti0qr0yqf2BII8NT2rKlTlvqy1yQIumbs1mOB4+5cwmGh8ZcoGMiUaLSRJkLXBwfnVAqRVKfMtVsTSiTHNZw34TGb2eVyHDcdEASghgE3kvnYnAKQklC1U1xHXqgTSeeOKj2/bVKVhViBB8fSSgId7pGdPHdPp367VVdudilyRQKwnwJAtscg+DEmW2OJYrFylReVab6BhIexTQ6MqY7twc0NjYauDITGZWUS1u31akkWaPUVEKlFRPatXeLWtsb1dszoK6ufk1NxJXNlGlsNKs7/WMaGr6jkrIp3Xv/Xu3c1aKx8SEXc5JJlSqTSmhkdFxDg8POncq20Jq6OpVVV7o4g+G+USUycdU3VWrXwWZHTiYmx/XBe6d19eIdjd1BNYAgpFwgLM8UWHZhBMFSLSdqSLVcr/ufOLDxCQKS/A9/+EMHHpydALCz8givIsMr7jAxsGHK6t2OeSZI8Nlnn3UKAuUwaUFCUBCQ+gliJICQlbIB/GzJeoohCNGfCvfYipS2Ao42OS4l6C90ssdWtp8egkCshm0bLaZ9YbLGj4ZMitFtjtEgRfrWDswKr9yXkiAE83so3UoufUjUnWDXhZ+D9kLuLNFRuF2zEZWorYohfdHnpQzGBnEx3/jGN9zhYvjno0mE8o35hfb/ct5nvxe28tHP/MYse6I9QzjQ9a62LDlBmF0Ut3WcGwtu4rZNj0TKZxQrZUUaUyyddNv3sm6XLDsIgmO/EyRd0xQJ9FRWllBJKSvNtCYnuK9UJWWcq0NuBU4GhCCQ9TcXiZ/hrIagvpgSxP87ZYJAg2RpWkpMOuUgO5FQMl6SczHk0hTntIQcnVlUVzrrxGJK4GLYFtPBB1r0wJOHtGN/nUqq508Q0mPSQNeQOt7r06k3rqmzoztwMXCyomVS5ByW2fIgBCbI9QXBiZbOitTHuWOV43LkIJYIUhhPTaLqBPFVxGWQlKqsrETZbIlTCmrrEzp0tFUtLdvUee2WLl++rtERTngs1dRkTONjkLgpVVRlde/9uFcb1d9/WxfOX9bQ4ISy6YTLpkmmxVSKToorWVrizoLABZPIxtRQV6e2XY1q29moyspqpxKdO3tVfd0jmhzFxBnFcyd6ziSdKmI3wyyJknAzkAehed9WnXxyExAEMq7hD6eTAXXkfybN8ARcCLiYmPCtv/LKK26SZ3sekfhMUBAG/KHIngTdQUDYix1OnJTvl1aMi2FRv9BVutmy8hlwhqXqYkAvrCBYquVokGKYIDi+nDuLwe7l71xuhMWYZq5xE3VHmC1Mwrc2LQTsF9LmYgnCQspejXvMjuG6zaVUsD1LShAKB/CFU/dYwN/0XbnDfVxA2fQhCDOg6cZvLlwwIBkzYDazNTC6tTcMujmocCcO507/C84VzgVO4rcPjkl2oX2cMuiyKM4fuGezu6MogE0yrvKGrI48tEOPfvoeNe+uVMK5GMwaRUTdZ+VIzUDPsCMIH77eqc4OMimmg7gNApZz6+fCqZZzdbscDdb6mSTFM1kkLeBvpq+ns0y6G2PaUluig0d2qrFpq8uP0Nl5U0ODbO0mnXJc6UzCpdeuqU1q37421dXXa/DOoC53dLpYEQgcgalB65OKKenyRsRiJLCaUnV1qVrbtmnnzmbV1VdpeHBSZ05fc0mVRkcnlHaHNoUpUfBsUKZCmJZvFwNBtGlOsqyZUuu+bTr51MGNrSAwEQMyBCpiMAKY8INHjVfImBZRT/IfyIJF4Nt9RFMTrMhKmfgGVs2FjqLdqATBfnJzuQ+KuWa2PAjYPJz3YK6+XE4gzjdmogTB/h0mK8vZpoUqCAXBdY1cELZnPvvP+TtecoIwZ1hdaFtlGAyLM2S05IXANkcW2yp++n581KHDihz5yKUpdnkaloUgJHIEoW0OghDQoFlfEYJw6o1OXbs4QxAsUVJAcgod1pSPIBTXL9Grysrjatxeq8rKCg0Pj+r27TsaG5+SiENwoA9BCJSbrVtrVFFZpYmJSd3pH9LoMAEgue2WjnCQXI1/g/q4DFLOtVS/tUp1tVVuS+TISEo3r0EO0kplCK5ki2Iu84FjZMHIMVI451PNlijJEYTU5iAIGAi/uEW/oyLkW3HMNtmHPw+XY6mMbcKyE/24PuwHn2vC2ugEwa1NIlm8l0pBKFYdWEkwzgfO+X6gK9mmjaYgLGwaz921jghCsK6feS2EIDgYdDc6GSE4zGc6iC1cdu7AJqdaLKSm/L0yoyBsXILArlVcDiUlSZdLYXRsTJk0NAWbB3kvXLKozJSSJXElkyWuU6bcCYyBGyh4BXsQAqino4IYiURJTKVlJSotCXI9EKcyPpZVOoU7CdWH465zpYQGTKDaFvi1eIIQGMhS/YZTIBcLXGFA4x5WruEsiSZ1U4/FGdjqtlDKZU8QCgcpzuZiiBKEfG6MpQDi8Io1H+GZ6yc4GzlcinYVC5SeIIQsteIEIQfORRxGVGx/zue6GYIQIgMR9SD4xnYxWHvnU8vs1y45QZjgNMdhXXIxCPkVBJcRcQUVBFb8HOHMToIgj4NjYbnsjHCBYNARY5BIxN2JmiB3NkPuGCMItuon7sAoQ1BaOkP+hbg7MpsXp0DihiCmJCAIgSKU68bpzvAEYR6HNVn63ijYh4f2bCvbfJ/PVo59buAVBq18P6PNQBDCoDpfwJzLxRAtF9JmJ2/O1c/FTn3UjeqUb0vibGUU41KZL8kotr2zXecJwmoTBKt/LnfEYns5//3FE4RAWVhK90JAO8DCeC4GQTryEC6GY7PEIBQgJ7gYcgTBxSDkIQgWg1AMQZgG80WbHrdAiVMNyMhIYCFBg+48C5eRMiABxEm4Q6VsWe+Opg4je0DS3P2hNpH+mVeQCTSX/TBGSuwgQbSbcyxY+q47vYIwr9McFz0OlqGAzUIQ5ms6A9poJsVwoqQoQSDegx0l/J1rm2MxbQnvOLBjnItd9RdSpjxBKKYHlumaJVMQ8izZlqnJiyl2fgQhFCu5mErv4mNBcGQ8GXYxLJwgpEIKQl6CAGgSn1RAQXDA7EB1saSNII+klM1tFXU7CVji4x5IuxTTwW4Qtj0mg10q03XmdrZMH60dbE+Mh4Im7w5evdtfELQ++F8gXGRnSMQiUi2TTRIus6liEJZovC95MZ4gzLLyyTHiYgiCqTSWbpe/hYJDC3UksSZsSSTlMATBzuYohiR4glDIuqv4fVEEwWTf2Ry464Mc2Ao+n7XzPVmQanlp+2ZGQUiooiHrEiUtRkFwBKFnWJfe/biCkMgFXwYEYe5dEUtDEGxFD0EA+Fn+23ZWUxD4i2E51hoSQQCiEZPQkdPuvpkohGKjT1AQAlUhV/1d3VfMzpDIWQxoEjFPEJb2V7CI0jxBWBqCYMcrk50xrB4UA+izdR/3Qg7Yk24uo2LK8wRhET+I5b61aIIQTNezvxa78lzuB70LNz5W2RLzgFkfxmIQ8NFXbJMOP7RDj3zq6MJdDJNBDEIHBMFtc+zW1ESQavnjBGGu3sutuhelIOQA2J3rEE5KNEMgZ9wYEARIBASBlyVqMrXBCAIuCNuBYUTC0D8y5mBzxlFmFUMK9LQLUiT4MTiO3J04SrptryCszA+0UC2eICwNQXAyJsfoJpNutU9QKq9i0k3nawHl2bkSFpQaDkadq189QSg06lfx+3kRhFVs5wap2pkbsMmdxXD4wTY9DEHYVaVkVQ7V7KJCIffEIEQIwtWL3Zqa5DjHuNjmyHtGQShA71y9iyF6RhBspZ4PjA25IQiQA8B/JogxcEeY6uBmrBxBCJODPAQhIvUs7FFsxwq2C8gB9svGA6qQrJlyR5Kf2Oh5ENbyb80ThIUThHAgqPupIzHmJpliVvqFxgVlhcuZc399qDBPEApZdhW/9wRhRY1v5o6XxFTdGHcKwoNPH1Hz7mp3FoNLTWQEYcb5PsukIGWmUBBGdPGdXpdqeaEEYWmMECYEhdQmS4Zl10X3JRohCGI2Zl5RAmPur2KeIB/5ubvNjkyRZzObUcLlUwgCVXknq3ME4ckNniipGFOu1jWeICyeIKxW3xVb72z5NYq9f7HX+V0Ms8y34eOeXz2ts2/d0mh/JpeieLFW9/fPrM+ziidjqt6ecCcDnnzqsFp216gEBSG85XIhBCF3WNN8FYS10TumPIRjWorYeVB0402pyN2Qy/xot1MrwZxpdpkoq2Qm7RQE9llCHEpyBOGkJwhFW3zJL/QEwROEJR9UkQI9QZibIHR2DOjtV0/r3DRBiKYvztdDK+XFX+7RsbzlB9CXcac51jQnnIJw8gkIQrVKqnJquzWhaIIwqovv9ASHNV3oUmqKREFRF0Mxz7XafRitP1AHCnlainmy4Jp8BGHm7oAgkFY5RBBMQZAnCMXbeRmv9ATBE4RlHF6uaE8QZicI5Pa/djFKENypSXO8bGJfbYBZ7pGz+PKnCUJJTDXNyUBBWARByE5Jt7sLEQSAr1Dbi4jwL1TEsny/jATBcYYZw/CfTkFwh3lxKNSMgoDzZ10qCJx3QGY90hxzSBJHuy40EG1Z+ncBhZKMhxMLScjDUc2cZR89aW8Bxa7rW4rJg2AxCGv9Qb2LYQ31UMQtmx6VOjv6nYJw/u0ujQ8EWVcLx7CsVYBZQ7bOrWI5K4B0wTXbkzr8cLseePKwmnExcFiTczHkQKvA8QnunKkUMQijuvA2CsIVXb3QnUdBcKF/Lj9Avt9eUNtcgYWrZ8NAPSjIbopoYEQ9mOWOtCkI2ayS2bRLlkVqaH4mxCDs2LdND6ynIEX2pUMQAFDA1M5DKMJiq37JbEFu9kw0kGNr82UDXPXGr3ADPEFYOoN7BWEWBYFUNmNS58V+vf3KaV14t1uTg3GXPTPrzkae7eUVhPmMzow7Ilmq3p7U0Ud36uFP3qPt7ZUuSNGdJhjG6wIFE6R4myDFt3vcNserxCBMknM4kMljGXYxcChzsMFwGmpzuv0MAAfBgNPkZD4PtKzXRoMUF1rZ/AlCWEEge2NJVUo79jfo5FOH1s9pjhyzDKCy5QySQEIcVIT18IoSBJ4B1YB99iTlgewY6QmrIsVGz68HGxTbRk8QirVU4es8QZidIGhSun55RH/81Yc6/9Ytjd9R8am1I0FfhXtiE16ROzYSglDekNHhh9r1+DPH1dheoWRFKAahGEEmK01NSAO9o7ry/m2dfv26Lp+/qdERCB15EFy+wmCbXq48CLOv8AsAACAASURBVIDbH8D2vel0xM7vNp2WiP9eM0QhdzT34kfK/AlCWEGIxWMqrUmrbV+Djj++f30QBIwGoJK8BkA1KZB97+vhlQ/ow4c5lZeXO4IA6Qm/NiNB4Pn5Qc+VSdG7GIob9Z4gzE4QMuPSjSsjev+NC7rwTreGeyY1lcuhMbd1i0G04vpnY1+VVSqdcimHt7QkdewTe/ToZ46primheGluhT+P3YK4GIb6p9T5/h19+NuruvDXTo2Pp5wS4bIM5LJBZgh45P+5rcozc0XOx4Ry4RISLYWcv4Q9mGvz0pQ4a/ak6eIJULQYBLeLwfl84kokk6qoi6llb52OPbJ7/RAEOpoVN287SGc9AWi4rZbcxzL/kQUQVST6POvp+ZZmYAeleIKwNNb0BGF2gpCdZEWa1uUPe3Tp/R51dw4oNWULjkLgUej7pem/dV9KLKOS8oTqWiq07/5WHTzeouq6mGIl8yAIFjuSkabGpb6OKReHcOncdY0Mj7tjFSAH+NBJPxwck8QrF3HgjrEm9M6OvY65hGqRk+hzpl69fl26GAQevRBBCHIgEKiIdQIXQ6CulJSWqnpriVp21evA8bb1QxAMOOhc1AT+mhzPXwOVwkFGK/+zywf8tNlUhHzkYOVbuXZqDO/weOGFF/TNb35Tp06dcsTQ+nrttHZtt4S4lkcffVRf+9rX9PnPf167du0KfLBLt6dqbRsgX+uYDNPSxEhWAz2j6rs5rN5bd5ROkdSG9ejqAcX6M+bsLc7GUioti6t2W4Wa2urd39JKKcapx3dJpbMTubtKT0lj/VLv9XF13ezT6Mi4y1zs6ACuhNBpBzMBDtNUYbpfMzjaHUOYTQ3aAP0/fQ50/v7JohkwB5CF0o6NjgUZaMuqkmpoqlXr7qr1RRDsUaOZ9GyyKzYl7kr/CGdTBjb1JF2gE3AjDQwMyAjCBx984AiC2czbrrhRjOvqkUce0Ve/+lVHEHbu3DlNTIsrYYNelZbSqZQmJ3lPaWx0SplMae5gnQIAsZgsvRvUnB97rBhuwnHFEilVVZarqqrCpV0mJmFWhb+QXVERJqXxsbRGx8aUmgrSqucH+jzgf1ea4nzkwAehgq3JZEKVVSWqrnbEK7/YslnGsX/OtWkBhiVbQF966SX9x3/8h9577z0RqAoJ3PQr4Hl0WV1dnR577DF95Stf0Wc+8xm1trbmdWfNo8j1f2luqZnNpN14cispcuW7w3f8a6kswEo9k02rJBlXIhGfPo6goEATJQqG22xaSEtT6UABIKAu2JGwRK9CBGWJqlnLxeQ8DYrnwjQ8QVjLvbXJ2wYh+M1vfqP/+Z//0TvvvKP+/n4Xg+IJQnEDAzs1NDTo8ccf19/8zd84osC/wwGyxZW0sa5yW74jCnMgOy8Z1Gwsgy3waVAKltSTZXGGub5b0rIX+Iwb9bbsjOvGKwgbtZPX+3PhUujo6NAf//hH/elPf1Jvb6/byRIEGXm6X6h/IQJtbW166KGHHEk4cOCAUw82O0FwdoucfTMd7e5JQqFhVdT3wW7CUHbAYM+hVCitclGl+4uW2wI2vXoFYbkt7cuflwXCJzMi/5L7oqurS1euXHExCayKPUEozqQQge3bt7v3tm3bXDIuIwc+hiOfDT3pLG5kzeeqnCpjpl1ykcb32cd7Y+mM7AnCfMa6v3bZLRBVBmx7K+4Gdq8AbBAH/ypsAWxFMjEScZFjI5zG2xMETxAKj6CluGIpCUKUDCyGHCwdiC6FldZGGR+3iScIa6NnfCtyFsjnOjBSgHIAObD8Ed5ohS0w264PTxAK285fsdYssBCCkI8IeHJQbM96glCspfx1K2KB2WILwnkuPEFYfFd4glCkDRezSC2yig192ZJi8UIJQhGN8P2cdxiuOYIwnTd7DYSohsEqOqGG2xn2m2/oH/sKPFw+goBqYNsbIQf+tXgLeIKweBv6ElbbAsW4GqPkYA6y4EnC3R1K8snVyoMwGxEgQY5lGVyp4RcFeItojn4e3l6H3G3/5r/9qnalesvX4y3gLeAtgAUKpRTOZyV/lsZ8xs6qEQRrpGU/tJXhXKv2+TzYQq4F6A34aU/4ZEU3HHMng/l9+Auxrr/HW8BbwFtgKS2wUIJAG4pwOyxlU9dpWStKEABYCzRzXRSLuZU3QGwnM67mHm0jALaNLnycdDSNs0XS+3MU1unI9832FvAW2AAWmK9fwBOD+XT6ihIEGoYLgYQ3ZMUzUmBSPqcakju+trbWbc1aqZepFvwdHBzU7du3HXGhHVVVVY7IkMEPMgBp4BlIA8zWO7uOtnu/7kr1mK/HW8BbwFvAW2C5LbCiBIFVN8D69ttv6/z58xoaGpo+txvlADDesWOHjhw54v5yEp0pDfn2x4eNE5b9o/n6o64Bi4i/ceOGawOkhBS07BW/du2a3n33Xadq0A4SzAwPD7vrGhsbVV9f7wLmzp0757L8lZeX67777nPJaMKKw1zBlqY+zOaqmM3NEo6J8O6O5f5p+PK9BbwFvAU2twVWlCCgGNy8eVM//OEPHUkg8Q2rdIAV0OTfNTU1+sQnPqGHH37YpYk1lwPfW/CiATxdF45hsEDB6A6DaBQ83wP4b775psvQBxm5//77xcE2gP4vfvELNyo4Jnfr1q26dOmSy+Z37Ngx7du3zxEJUv9CJGg/h+Ds2bNnWvWI1mexDOZiMeUk3N7wf4cJQpgUREkQSoZ9Zn/DddnQ9srG5v6R+6f3FvAW8BZYiAVWnCDcunVL3/zmN11+/aamJt17770OmCEHADErc4D42Wef1T333DMdKAgYQiRQFQA8ridXPzI/Lz5HCcA1EU6sQ6pe3AMALSDM95Rz9epV/fznP9dHH33kctR/8pOfdESB9nFAENcfPXrU1f/nP/9Zly9fdsTl5MmTrr3vv/++OIIYReFTn/qU2tvbHXEYHx935wXQPurD9cCb73gG2mPHFvNvIwsQI9QI3BjcB8mg3Twf1/EZ7eZtcRsoG9RnigltxQaUE315krCQn4e/x1vAW8BbYPNaYMUJQnd3t/7t3/5Nf/nLX3T8+HF3Rj1KAaCKqvDTn/7UqQiALkSBlT4ACeACji0tLc4VQawAq3rK44WLYO/evWpubnZgTHk9PT2OCJDDnxerfb6n/AsXLujFF1/Uhx9+6FSBJ598cvowG8Af4MalQDwCagHl4EqgzYcOHXJxFBAaykRpwBUB8EMwcFPgSoGMUB/PhwuCMrmHdgH+XGNkAXLCm3J4PoD/+vXrrjxzxUBMeH6IFWWfPXvWlcWzYiOIyP79+1194bS65qbZvMPcP7m3gLeAt4C3wHwtsOIEAdBDQWD1feLECXcM7c6dO6cJAkf7ApCPPPKIW6mzejeAB7AfeOABpxagNFy8eNHdx2ofwKQ8wBowBlh/97vfuWtYaXMNANra2qqDBw+K+IPf/va3rhzIBcCPmsF/o26wSqc+SAiuBFwjEBDiEmgb4I47AgUBcgGwUxbXojbQLogKbYFYPPjgg65vKPu9995zoM/3kAbIAOVw6h7XcagOROKtt95yxIRredEeSBMqBiTnl7/8pU6dOuUCPiEEu3bt0mc/+1l3DUpCWDVYqwpC2F003x0s4XwV5ooxF8tyPe9csSXz/fHN5/rVqnc+bfTXegt4C2wsC6w4QQCYn3vuOQekrJiJNQBEAXFIA4SAFTpgCTDiBoAg4OM/fPiwewPOXMf3ACurZ4AUooGrALkfEEaRAIQhBbxY9bNyhyAgwxODAMjbkbjUi1z/wgsvuOshAygXKAq0G+AF7LmO1TttIEYBdwiAhGuis7PTATzkBvcAddLGz33uc+6z1157TX/4wx/c9ZSDAkHbUSooH7IBSaFtqCyoJoA9ZdnzEvMAGfjBD37gnhGSgX0gDk888YRTQsK7QJYLLJfip9DX1+fIHC/UFmwVzT/Bd0YG+I4+MmLF2MDGKDHYF6IGecJuPLfFfdiWWiMkRijMnWMuKOqyGJJo8ivGDuOBNkDIGFvhtlmSLz6LxoJEM0BaTI3Z0AJXw89u11AuhJN/M26jO3yi5CEct2Ll8xnlWJuL6btoYPBaHkfFPI+/xlvAW2B+FlhxgoCCAEH4/e9/75QAgA3FgMkLsGACRCVA9scN8KMf/chNtrgiWOUDvuyAALS5B0BhBQ0hABieeuopRxBef/11t+q3uAEmdMAbl4QBEdewAgeYWXnzOe379re/7SZjyqJtkBmIxOOPP+5W+FyH+oBCAZhzHW1AHbD2A+CAPgBOmbRj9+7d7hrKQw2AWFAWzwIhoCyu4xlfffVVp35QDgQKgkBAJSAFiYBA/d///Z9zkeB24DPshosB0rHcK+n5DbOPXw34AOoWy0F7sS0qDTY3IsB19izhgFTuxT6QNAgW4EXMCioQ9qIfwoAW3dkyV/vDAGvAjf0hMvQl/QO5ZexFSUQ+cA6DtMWcRF1A4fYYGaJuxjhuJBQlwB0SDAniv6NkwgJV7X4jO4XamI+cRMkBZXmCsNhR7+/3FlhfFlgVgvD88887QATQIQKskJnwmICYeAkOhDwgsf/4xz92YPpP//RPbvWOHM/nvAn4Y9WIogDQ40IAxAFMAJbVHvfhEuA7JlpWm9RLfS+99JIDa1beX/ziF50acPr0af3Xf/2XW6EC4EzGXIP7gJU7Lgzay70oBnxP+cQd0AZUAa5jFQ/hQTHgOp6JN6oAdaBi/P3f//10+cRDMJEDkrSVnRQQGggUMQc8C+4Onh9XCjEaP/nJT5w7A+JE+ykf0LLXWp7QbSeJ2QfAhATSx9Y/tpKP/qQARsgXY+iVV15x5AwVCPWE+xkvNp7CuzwsAVZ4xR0FalMnwgDJffQl/Uv/oUgxZgBrxmk4NbgF01o59KmpB5RjgakoHNQdTsBlddruFO5jbKNWMd4ZFxAgxg424nvKjKoCkEhL/x122xihgFyZfagrHOSaL4PoehhP62va9a31FlgfFlhxggDI/eu//qtbOUIOAFfLIcCkBUgDuqzYAFbkflbF//iP/+iuB4gBBSZMJlTIAKCJe4IJ9LHHHnPl/b//9//cZPzP//zPrg5WpYAKkjQAz72AMitQA1jqpl0oCHwPYAHO77zzjlMtAGUICKtTIwgWpAiYs5pnu+Qzzzzj2gpwAYC/+tWvnGsEAKd8Vr5M9F/96lfd8wI6bP2kvYA/7aNtkBmIBsoCLwIzIQqslGkH9+D6gLR86UtfcnbChnOtYtfKsKSN9MXLL7/s3oAXhInn58Vz2k4OC+SkDyGEXMuKmj5GyeHf5l4BtLFBWDFgXHCvuWn4y/dI9ZAJ7E0ZACs2NjtTDt8BmigHqF6QEurA5ihPlG3Ab+4MxoRt22WsQNqoi/JxE/GGWPAsEBjGL0QAwmtuBWszxISxjloFqcA+vFGeqBfbMD5MdcEVwT2Ug9IBCcF9x+emAjDOuIfnoi18b99BPKy9UVfPWiaca2Vc+3Z4C2wkC6woQWDSYvL6l3/5F7eKBrgJUkRGt9UQkyATE64AwPVnP/uZA0TAA+CHCPAZ97O6ZjXF5Iq7gEmXVSQrPBQEXAxf/vKX3aqccgFT6odUMEECLrgAKANQp/y//vWv+u53v+uuZ1XOdUzQbIcEFHgzsXMvbwAEFwNgzm4HyoCk4E6wHRBnzpyZls+pD9cJBOErX/mKux73CMGZTPa0lfJREJjUWRHzPEzO1AG4QWgAp+985zvumXA3QGaQ5wGEfD78tTZoGQvY59e//vU0Qfi7v/s7R6IgWxBBgJO3ZayErPE9wEc/EaSJ7fg37hXiWegPiBkgj83oR8YXRIDxgJuGMQC4AoYoPrwBZMYcfQMZoC8AdZQJCCvuBcYY/Uef0QcWMEt9PIttbeUe6qbd9CXkkHsoEyWK8inTcmfwrHxOX1IGYM8Ypc2MbUiJEWLiYuhvnol6IRW0n3/zrKhkjDfICmOQ8YB7zMo20gOB5UVbIO20jfshHrSXZ7BEZUYePEFYa78i3x5vgeW1wIoSBCZlQI5tjkxiEIS//du/dcAWfTGZs7JkJQ1oAh5MqhADVAWIAsDOJMvkDVAADqzymTCZyHENEI/Aig8CQt20gRUYkyCreUgIEyMTPu1gUqd8Vn6ALhM75bCCY/IEmFnVoxYYWHAdQAbYARRM7igDgBQTMGXRLu5/4403nBoBQeDZAT3iEnAXsLJj8mdytgBK7oEgMOEDbIA/6gFtgCAwuWMf3BoAggXnLe+wWXzpUQUB8IHM0QfYCNUG8LOgPFbfvFAKAEmAHhLIeACEIVJ8xz2ALeMHWwGykEbAnjEHWBrhwN7YzPqG7+kLxgl2ZKxgf8CXchkHuBkYhxAVyCIv7qNPuZ5+Z/wB9IxL7ie+hfHGSh1SCbmhTNoMUWLs0mbbbYNteCbrT1Qu23qLSkR/M0aoF0LAeICsoFygTmEXns3cYTwTZWBDrqFc2kP7uB4SYq4QiBLlEwtD241wzneHyeJHiC/BW8BbYLUtsOIEAUD73ve+53znyPFMnoB49MXEx4oNeR5AADwAa1ZCADFyrwUpMnnxOWDw9NNPO7Bn8uMaAtjMtwtIUBcrfIgFkyPAb4FngC7yKhMq1wIckAtACLcGEzjgT7sBa1abKAyAM6tRSAuTPSTBZH5WgwCGrW4BCO5jgubZIQi4GFBFABUmer7DPux2sHMhKI/J2gANgEB14DkhG4AgoGO+5dUeWIXq53kAJlQAiCAEATcJz8fOFZ4dkMZ2ECRW99iJ/kCxwRaQKEgaNmT3CuCJv57P6R+upa9QoFAlAGaAHsWB+iEL2JwdJvQr/QcQA6LUCZHgOsqlPlQkCAK2B0Qp18YZ9TIWLNsm45Hr+Yyxy5ikPAgv9fCcjGvcLKgDtIPPILkQFNrPWOQZcKcwrozIUhb9zPjmO/qe54e4UCe5RCArqGKoAIxdbMeYZoxDrCEmPCsuBkgNz8z4xk487xe+8AVHYCAqcwVUFupn/723gLfA+rXAihIEJiUmISZ1JkEAjUkScA2/mJSR1wFwJnUAgMmYyYqVOpMxk6yt9JjwmWD5nsmNSZUJ0s5LYBKkbiZcpFXIAfdwP3UwyVMnBINJ1qLiWSWyioKsoBgwaTPJ0m5WY0i8tJ1noG6uYyXJ/YABq1+Ah4mf4EtekA3q5XML0GS1C/DQZruWNtuKF1uwwqMO2+4JkAAsXEfZPDdtse18a31I5iMIuHToO+I7AERswe4M7E0//e///q8DK0uuBegBkjw/LiiAG8JnAaoQQVbXgD3XYmPLP8FfxhC2RZ1CucDegKb1G21kRQ3oM17oO4gL7YLc0X+UCcmBZELuqI9xhAJCW7iP8vmOscvWVFbz1EdfAsiUQZmf/vSnXVsZZxAMiC8EA7XE3Fk8E8ANuYJsMMYhTATU8jvBbuxuYbxDuLAX9oBI0F7u5zraxpsxR520E5tAXrEj92J7xiljzwjqWh9Xvn3eAt4CS2eBFSUINJtVP6tifJ6AHBNTPt8mExJkgomQ62yng0nTgDHfW+phJkI7DZJVOy/upa7w8c2ALG9etIEyWFXSLsCfevicegBcyoR8AOqACfWwKrMgNAuspB3cxyRLvRAIvqMM3txDO/ie6wAhnp0X5XKPpUrmWmsbz0ldlMXn3EN5XEub+I7npZ3hiPmlGyLLU9JsBAGFB8AFqAFmVsGAJ0BI8Cj2A7wAV1bLxH1AKgBhgI7AVsAUe7AKRrmhLj4DPHH7YCf6nPux89e+9jW3wseekAZW9fQPY4OVNS4pQBOSgqrFChzVgXZBBIgXoVxIA2DNvazaUboYT7iScH9AGr///e+7Z4MgUCaEEiWDdtpzWaChgTLXE5BJWZAIVBFIJWSDNqF0QRBQAnCDsPOHcQGRYrxCBBhHPAdKA89PO3DlMO4hNIwrxiw2oF3YnWcxYhvN47A8o8KX6i3gLbCWLLDiBIFJL7yf3c5NCBslvO+da6MSp6Vetu/4a+AY9pXadbYCsgmX8vhve4e3evGdERa+t4mRydPqsftoM/WZrA8BsK155mLg+/BBTNxjEfaWpMfusWu5xkgN9VpiHtplW+psG51t4+Nz6lwPAYo8H21FgTEXA3YHIFFscDmgHLFSBohRECAI3/rWt9zqGsme1TCqDgQBsIUgAGy4pCADkEA+A5hxTwCalniKFTTEgH8D7ATKssLnM9QfS0rEyh2yYHEnuMdwXyDTA76QFAAZIsA9KCCsunk2AJ3ngHRCVCAg1AWo025UJ56LlT0gTzspE9IBCUJB4AUZNBcXBAGAhyCgerGLhRU/8QLm5oIEocDw4rkglRAB7MZ1EAzaSiAutgvnVmCsQaghGpADS2LmgxPX0pTt2+ItsHIWWBWCsHKPFwBR9BWd8PJdM582hssrpr75lL2Qa9fDhA7BgSCw+gZMUWAAfggCAIcbiRUvK2OAlJX2f/7nfzoAA3CNIBAvAmDjYkBBgHCgIpi0TxmAPuoDigFxLFyPKoSLhvJYLeNOQlXg37btEZcDb9w3xHmgKOBisAO6iI+gXXwGuQDgIQg8G6t2YikoE6ClfMgGz4Y7AkIAAbJU3qzibcsvq32uQQVBrQDceSbKhcjgbgPMcR1AciBI1IFygbsCm0AssAl/uZfnom08KwSBQFzIDgSBOrA7bcXlAYHiWnPrrYfxtJDfib/HW8BbYG4LbHiCsBkHwHqY0M3FwIqfnSQAFQCLiwFghSCwUmbFy2essgF5SIWlmmZlzQoegGS1jL/echUArpALymA1TkAn4MmKGjAEbKkD2R/QpAzAGjLBqh9Fg38DzgAlgA6w0laAHtJA2az2UTsoDxcDOwcgO6gEkB8IBiANeSEGgX+jWBELwIoe0sEKH5WD+BfqtpgZ27FgZIC22QmoPAPqA8+LLXEFoB6xZZKycLvg2sAOEAZcWJAIbIdyhXoAMcOlgNoC6aEtPC9kCLtDpMxdtxl/R/6ZvQU2uwU8QdiAI2C9EASAkIBVVsGAFqtjguL4jF0cdr4EYAjwIeVzDyttroM0AMSAI5K4He7FZxABtowCcgAzq22CA1lJm8vGYk0AalbRACskwrbDAvrI7bYtlnJQC2gbq3XcBJSF3I/NKceSJ0FKAGEIDOUC/LwteBXCgduB54ZgQHYsXobPeGYICHXYSafER9AmiAOf0x5shyvE3GHmvkN1gaxAECBCgD+KB/WirtBmngXCQr2QFkgR6glEgussgZm5hNbDuNqAP2f/SN4Cq2YBTxBWzfTLV/F6mchZGRNsxxuAAxQBL1u5A/h8ZodVAcwAHeDHqhzg5VpW3pAEAJiy+Mx2mwDwxHPgqwcUUSAsgBQgBujtmG2T2Lnf0h3bLhTqAKgBY74HiFEFAFVIC+1H6WCFT5mQD0gCAYhGICyQFLWEeAneqA0QEp4NZcKCd6mXZydIEneIHf3N93zG9/a8tIk2UBbEiOfiGtrDv3FZQCZQWGiz5XigXagQPA82MXUF9QFFgfZa/I/F1CzfqPUlewt4C6w1C6w4QVhrBvDtWT0LADoAkyVBAjgBt3BwqWXW5FrAEbAHGLnOTlfkPksQBZjaiYvmKuBey8jIXwM7yrBdKdwP6EMCLOUxRAuwBzj5nhdt4M211jbay4tr7Rn4nvahGHA9LzvnANWBtoXbTL20m+ejTaY4hINkrV7ut907fEYddpKk1c9fs5OlrbYTKI1A2imRdr8RJqs7HLC7eqPE1+wt4C2wWhbwBGG1LO/rXXEL2M6QcMW26yW8c8VOXOQ6+9x2h/DvQkGtdk14t4vVaeXNdo3dYztWbJeKyfz5/s71PPmMHG2/7aIJK0+2W2bFO8lX6C3gLbBmLOAJwprpCt+Q9WKBsNxuYDubWydKEua6Lko+wuSgGKBfL66l9dLPvp3eApvdAp4gbPYR4J9/wRYIr8TnAv7ZKvCAvmDT+xu9BbwFVsACniCsgJF9FevXAsWQgLmebi53xFoiCNF2rqW2rd/R41vuLbC+LeAJwvruP9/6ZbKAAWY0er+QUlAoaVa+5uZL3GX1eqBepg72xXoLeAsUtIAnCAVN5C/YzBaIEgT+HQ52tDiBaIAfNisUzDgbWeA+y2cQTp1dKCZhM/eTf3ZvAW+BpbeAJwhLb1Nf4ga1gG2DtAO3bGshWw7JGWB5AxYL5OGti+SFsO2QXk3YoAPLP5a3wBq1gCcIa7RjfLPWlgUgAyQy4qwCEhORfMiO4SYdMQmIyG7ImQp2eNdCAZ0ESyQwok4Ob6JsK3NtWcW3xlvAW2AjW8AThI3cu5vw2cKxAzw+7gCA2k70DEv2JuNzT/jz6ImYADXZDkmJTOpkCALJhczdwPWAOKmNOYDJUhSbkmDXWaIk6rVXONaAtlIXh0qRbppESw8++KA7CwISEs6dYHkKokGUPthwEw56/8jeAstkAU8QlsmwvtjVsQAACcgi07PCtyyGJtVb9kPAl4yJlr3QMhvyvWVNtCfgoCPOQeAYac4+4EVKZVJBk/oZNQFw5+yIT33qU+7sBlIVQwRoC3WRwREXhKVCDmcz5F67huupi0OYaBsHQEESIAh8Rzl2BDgpqM39ED7mPGz5haoYq9N7vlZvAW+BtWQBTxDWUm/4tizYAoAxIAlB4PAhDnfi/AIAnM84X8DOXKASQB0lAPAHiDmzgfMNcBFwzoOdQQB4cx0HRb3++uuOcHAg0+HDh91ZCcQjnDt3zh22BIBzTPLjjz/uCISRB85/MILAPSgM1EG7uN/OlOB6XAm4F95//30H/l/60pccQeDFmQm8BwcH3bPSXpQL2m5EIWpATxAWPKT8jd4Cm94CniBs+iGwMQwAkAOagCdg/c477+j8+fPTrgAOeAJoOdEQQoASwKmPdlYChxsB/JwoybWcq8ALYAesX3jhBfd337597hjpo0ePOmCmLAgEq34OiuL0SL4DmDltkpMUORQJYkGZHCvNKY2cyMgLeNLh1AAABzJJREFUcvHee++52AauQSkg1gEiAFnhGGtiGyAR1M+Rzxb7QP0czUx5EI+o8kH5niBsjPHtn8JbYDUs4AnCaljd17nkFmA1DlgDtK+99pojCHYyIqt0VucAN3ECXIsaAHhzSiPADRFAZUAB4Jho8/lz3xtvvKGf/vSnDuifeOIJPfPMM+54aDvgifIBdJQLysKVwDHKAD+fowpAXuzERUCdN6SGmAaICooFbhCUEJ6hr6/PkYkvfOELjihAaGgvz0gddhAUQYy0hzgF3BrR+AlPEJZ8qPkCvQU2jQU8Qdg0Xb2xH9QIAscm//GPf3Rgygs/PUoC/2Yl/tRTTzkQJZ6A1TifGTADxMQPsCLnPq7DBYF74Ze//KUjGcQEfOYzn5k+qtlObbTYAAAccP/FL37hSAKgTR0QDnYnEIBI7AJKBiCP8oAiQHAjYI+iAWlAWcB9QEwDdfzud79zbhGObObNdRAJ2omi8clPftK5UAiEDJMCTxA29rj3T+ctsJwW8ARhOa3ry14xCxhBQNYHYC9cuOAUBECez3A7EDfAahuAZkXONYAtSgAreAD2+PHjztXANYArgYwoEj/72c9ELAGAzaoeSZ/ARurlGkgB7g3+jdLw85//3CkGEI7HHnvMxRzginjppZfc9dwPQeAzYgloF24H2vyb3/zGEQLA/xOf+IQrm39DClA8IB1cRz20nXshLigO0VgETxBWbAj6irwFNpwFPEHYcF26OR8IYGYljqwPmBLox2qaXQPI/KzciR8ATIkxYPWN2sDK3xITAb64FwB0AgkBVxQBFIkXX3zREQrIA4GDgDmqAG4CymILJHECEA6AH7cEbaIs3BbEOHR0dOhHP/qR2zJJXdRN3ALA/sUvftEpDbTllVdecW9cE4888ohTHv70pz+5uowg0DYIC9c8/fTTzvWBiwTS4hWEzfkb8E/tLbDUFvAEYakt6stbFQsAxrgDANaXX37ZkQIAk9U5K21iEvg3YIpSAJhbLgNW+rggkPIhCAQGci1AiwLBd7/61a/05ptvus9Y1eMSwCWBGkAMAcQEwEeBQH0gjwEAjiuB6yEOKBm0D9IBSYHQ4IbgepQJ4hIoA/cHpAQFAeBHQYAg8Iy4Idra2ly7cDnwlzafPHnSkZpoQiWvIKzKcPSVegtsCAt4grAhutE/BOAO0EMOkPcBVVb5gCZKAQoCoMwWRADZdjiwHZEVP98D3AQxQhC41hIs4ToA8F999VVHFghCZNVveRBwE1AfbgNiHIgdgJCcOnXKSf4oF9wDUWH7ZXt7uwsqhKD84Q9/cPcS9EidtAE1AgWEcnAd8Gxcx/NBDiA4fAYJQsWAIEAuUBd8DIL/LXgLeAsslQU8QVgqS/pyVtUCrK4B+rfeesut9gnyQ25nFU5wIVI+QI1kD7DjLkDyR9K3WAMAHncAIM+K33YEcA3AjlIA8HMfcr9laWTVbgGOgDV1Uj9tgZzQLq4lzoGtiaz2USDIm4AqwXXUYcmaUBF4QwQIiCTmAALDG5WEcowIQDR4JrZXEucQVQy8grCqw9JX7i2wri3gCcK67j7f+LAFLB4AIIUAAKbEIACSgDHuBiR/CAKEATUAmZ4XK3zcCgQyIuMD8gaurNZZ7bPSRy0A/LkfEGfLIaDPvagAlo8A9wIuBdrBtSgDAD0qAWDOdZAadlKgNJDUifJoL22BLKAI0F7agkuEsohHwDUBSeB7tm6iZliypOiI8ATB/0a8BbwFFmoBTxAWajl/35q0ACtxgJycBKzcLY6AFTfAa+mJAWNAHNkeYoFUD8gSTAjoowrYy45f5jrKJ8gQYsHnADnXs3rnflQH6uJlpILER7SF6yzIkGtsiyTl4cagTVYe14bffEc5lpURgkCdKBf2TNEcCLTBE4Q1OUx9o7wF1oUFPEFYF93kGzkfCwDGrNjtQCMDSsDSDkoCoLkGwOe/AVw7pyF6eBP/Dh+qRPm2hdKkfuqCVFhGx/BZC9RDvXzGNbztnAbahrph7TKCQXv4bz43MsF/U2+4zRAKIyT5bOQJwnxGjr/WW8BbIGwBTxD8eNhwFgCkAfRowB4PGgZii1uwFMUGpkYGwgpCeDUePo3RTmyMGjF6ymK4LKuHdhpxiJ7OOBewQyhMGcl33Wx1b7iO9g/kLeAtsKwW8ARhWc3rC/cW8BbwFvAW8BZYnxbwBGF99ptvtbeAt4C3gLeAt8CyWsAThGU1ry/cW8BbwFvAW8BbYH1awBOE9dlvvtXeAt4C3gLeAt4Cy2oBTxCW1by+cG8BbwFvAW8Bb4H1aQFPENZnv/lWewt4C3gLeAt4CyyrBTxBWFbz+sK9BbwFvAW8BbwF1qcFPEFYn/3mW+0t4C3gLeAt4C2wrBbwBGFZzesL9xbwFvAW8BbwFlifFvAEYX32m2+1t4C3gLeAt4C3wLJawBOEZTWvL9xbwFvAW8BbwFtgfVrg/wM2OcREMFvPDAAAAABJRU5ErkJggg==;" vertex="1" parent="1">
                    <mxGeometry x="-118.08000000000001" y="760" width="345" height="207" as="geometry"/>
                </mxCell>
                <mxCell id="55" style="edgeStyle=none;html=1;fontColor=#000000;strokeColor=#000000;entryX=0.5;entryY=1;entryDx=0;entryDy=0;exitX=0.5;exitY=0;exitDx=0;exitDy=0;" edge="1" parent="1" source="37" target="62">
                    <mxGeometry relative="1" as="geometry">
                        <mxPoint x="122.39999999999998" y="1527.7392867132867" as="sourcePoint"/>
                        <mxPoint x="202.39999999999998" y="1527.7386153846155" as="targetPoint"/>
                    </mxGeometry>
                </mxCell>
                <mxCell id="56" value="Kubectl" style="edgeLabel;html=1;align=center;verticalAlign=middle;resizable=0;points=[];fontColor=#000000;labelBackgroundColor=none;" vertex="1" connectable="0" parent="55">
                    <mxGeometry x="-0.3" y="-3" relative="1" as="geometry">
                        <mxPoint x="25" y="11" as="offset"/>
                    </mxGeometry>
                </mxCell>
            </root>
        </mxGraphModel>
    </diagram>
</mxfile>